<?xml version="1.0" standalone="no"?>
<!DOCTYPE svg PUBLIC "-//W3C//DTD SVG 20010904//EN"
 "http://www.w3.org/TR/2001/REC-SVG-20010904/DTD/svg10.dtd">
<svg version="1.0" xmlns="http://www.w3.org/2000/svg"
 width="465.000000pt" height="348.000000pt" viewBox="0 0 465.000000 348.000000"
 preserveAspectRatio="xMidYMid meet">

<g transform="translate(0.000000,348.000000) scale(0.100000,-0.100000)"
fill="#000000" stroke="none">
<path d="M1821 3015 c0 -23 -6 -46 -12 -52 -17 -17 -3 -43 22 -43 18 0 20 4
15 28 -4 15 -11 45 -15 67 l-8 40 -2 -40z"/>
<path d="M1810 2880 c0 -5 7 -10 15 -10 8 0 15 5 15 10 0 6 -7 10 -15 10 -8 0
-15 -4 -15 -10z"/>
<path d="M1812 2837 c-7 -8 -7 -18 -2 -27 6 -8 10 -27 10 -42 0 -23 -22 -42
-150 -138 -83 -61 -148 -115 -145 -120 10 -16 605 -13 605 3 0 6 -68 61 -150
121 -156 113 -167 126 -140 176 13 24 -11 47 -28 27z"/>
<path d="M2245 2500 c-28 -19 -50 -20 -418 -20 -338 0 -391 2 -412 16 -35 23
-46 14 -30 -23 l14 -33 430 0 429 0 12 36 c7 19 10 37 8 39 -2 2 -17 -5 -33
-15z"/>
<path d="M1490 2396 c0 -13 7 -26 15 -29 12 -5 14 -45 14 -247 0 -228 -1 -241
-19 -253 -11 -6 -20 -22 -20 -34 l0 -23 345 0 345 0 0 30 c0 20 -5 30 -15 30
-13 0 -15 34 -15 246 0 219 2 248 17 259 9 7 14 19 10 29 -6 14 -40 16 -342
16 l-335 0 0 -24z m320 -276 l0 -250 -130 0 -130 0 0 250 0 250 130 0 130 0 0
-250z m290 0 l0 -250 -130 0 -130 0 0 243 c0 134 3 247 7 250 3 4 62 7 130 7
l123 0 0 -250z"/>
<path d="M1572 2128 c3 -9 32 -13 106 -13 140 0 139 19 -1 23 -85 2 -108 0
-105 -10z"/>
<path d="M1870 2125 c0 -12 18 -15 105 -15 87 0 105 3 105 15 0 12 -18 15
-105 15 -87 0 -105 -3 -105 -15z"/>
<path d="M1520 1780 c0 -5 23 -10 50 -10 36 0 52 -4 56 -15 9 -23 389 -22 398
1 4 12 17 15 49 14 56 -3 67 -2 67 10 0 6 -110 10 -310 10 -200 0 -310 -4
-310 -10z"/>
<path d="M1720 1711 l95 -6 3 -29 c2 -16 -2 -40 -9 -53 -15 -28 0 -49 26 -39
13 5 15 12 10 29 -4 12 -8 38 -9 57 l-1 35 95 6 c64 3 30 5 -105 5 -135 0
-169 -2 -105 -5z"/>
<path d="M1812 1549 c2 -6 8 -10 13 -10 5 0 11 4 13 10 2 6 -4 11 -13 11 -9 0
-15 -5 -13 -11z"/>
<path d="M3138 1535 c-21 -28 -23 -46 -5 -64 6 -7 -11 1 -40 18 -28 17 -54 39
-58 49 -6 16 -8 16 -21 -2 -20 -28 -17 -46 6 -46 27 0 72 -23 91 -46 12 -15 8
-15 -21 3 -19 11 -60 26 -90 32 -30 7 -63 19 -73 29 -19 16 -21 15 -63 -32
-24 -28 -41 -52 -39 -55 3 -2 -5 -15 -17 -28 -38 -40 -9 -25 51 27 80 69 82
63 5 -12 -35 -33 -64 -64 -64 -67 0 -9 239 -61 279 -61 28 0 45 11 105 71 39
39 86 83 104 96 33 26 38 38 23 62 -8 12 -13 11 -31 -10 l-21 -24 16 33 c8 17
12 32 7 32 -17 0 -41 -26 -45 -50 -3 -16 -5 -9 -6 18 0 23 -5 42 -9 42 -17 0
-32 -25 -33 -54 0 -27 -2 -28 -9 -11 -5 11 -9 32 -9 48 -1 33 -11 34 -33 2z"/>
<path d="M1810 1490 c0 -15 5 -20 18 -18 9 2 17 10 17 18 0 8 -8 16 -17 18
-13 2 -18 -3 -18 -18z"/>
<path d="M1813 1443 c9 -2 23 -2 30 0 6 3 -1 5 -18 5 -16 0 -22 -2 -12 -5z"/>
<path d="M1797 1414 c-11 -11 -8 -74 3 -74 6 0 10 -13 10 -30 0 -20 5 -30 15
-30 11 0 15 12 16 43 0 33 2 38 9 22 7 -15 9 -9 7 25 -2 40 -5 45 -27 48 -14
2 -29 0 -33 -4z"/>
<path d="M1111 1183 c-38 -19 -71 -78 -71 -128 0 -51 34 -110 73 -128 105 -50
207 13 207 128 0 115 -104 179 -209 128z m128 -69 c38 -49 20 -124 -36 -145
-52 -19 -114 47 -99 106 17 66 96 89 135 39z"/>
<path d="M1860 1182 c-93 -46 -93 -209 -1 -257 45 -23 112 -19 152 8 30 20 34
28 37 75 l3 52 -65 0 c-59 0 -66 -2 -66 -20 0 -16 7 -20 35 -20 47 0 50 -33 5
-49 -82 -28 -145 72 -89 143 24 31 67 35 110 9 27 -16 29 -16 49 2 24 22 13
41 -37 62 -44 18 -91 16 -133 -5z"/>
<path d="M2223 1185 c-96 -41 -98 -211 -4 -260 97 -50 211 20 211 130 0 110
-104 175 -207 130z m102 -51 c26 -10 48 -62 41 -99 -19 -100 -156 -84 -156 19
0 64 55 102 115 80z"/>
<path d="M140 1055 l0 -135 30 0 29 0 3 81 3 82 64 -82 c57 -73 67 -81 97 -81
l34 0 0 135 0 135 -30 0 -29 0 -3 -82 -3 -83 -68 83 c-57 68 -74 82 -98 82
l-29 0 0 -135z"/>
<path d="M512 1058 l3 -133 30 0 30 0 3 133 3 132 -36 0 -36 0 3 -132z"/>
<path d="M700 1054 l0 -135 28 3 c25 3 27 7 30 51 l3 48 57 -3 57 -3 3 -47 c3
-46 5 -48 33 -48 l29 0 0 135 0 135 -30 0 c-28 0 -29 -1 -32 -57 l-3 -58 -57
-3 -58 -3 0 61 0 60 -30 0 -30 0 0 -136z"/>
<path d="M1420 1055 l0 -135 30 0 29 0 3 83 3 82 68 -82 c57 -69 74 -83 98
-83 l29 0 0 135 0 135 -30 0 -29 0 -3 -81 -3 -82 -64 82 c-57 73 -67 81 -97
81 l-34 0 0 -135z"/>
<path d="M2680 1055 l0 -135 30 0 c26 0 30 4 30 28 1 27 30 72 48 72 5 0 24
-22 42 -50 28 -44 36 -50 66 -50 19 0 34 2 34 5 0 3 -23 39 -52 80 l-51 74 47
55 48 56 -35 0 c-31 0 -42 -8 -82 -55 -26 -30 -51 -55 -56 -55 -5 0 -9 25 -9
55 0 54 0 55 -30 55 l-30 0 0 -135z"/>
<path d="M3040 1055 l0 -135 30 0 30 0 0 135 0 135 -30 0 -30 0 0 -135z"/>
<path d="M3220 1165 c0 -24 2 -25 68 -25 38 0 72 -3 76 -7 4 -4 -29 -41 -74
-83 -62 -58 -80 -81 -80 -103 l0 -27 125 0 125 0 0 25 c0 24 -2 25 -75 25 -54
0 -75 4 -75 13 0 7 32 44 70 82 53 53 70 76 70 97 l0 28 -115 0 -115 0 0 -25z"/>
<path d="M3686 1182 c-9 -16 -106 -247 -106 -254 0 -17 56 -7 68 12 18 30 124
29 145 -1 11 -15 23 -20 45 -17 l30 3 -56 133 c-55 131 -55 132 -88 132 -18 0
-35 -4 -38 -8z m59 -118 c21 -51 20 -54 -26 -54 -35 0 -40 3 -34 18 4 9 12 29
17 45 13 36 25 34 43 -9z"/>
<path d="M3972 1058 l3 -133 27 -3 c23 -3 27 1 30 25 2 22 9 29 30 31 20 2 30
-4 44 -27 15 -25 25 -31 51 -31 39 0 40 3 12 41 l-20 29 20 26 c33 41 29 108
-8 145 -28 27 -34 29 -111 29 l-81 0 3 -132z m136 66 c45 -31 13 -99 -45 -92
-25 3 -28 7 -31 47 -4 60 28 79 76 45z"/>
<path d="M4292 1092 c5 -109 15 -134 61 -162 38 -24 85 -25 133 -5 48 20 64
62 64 175 l0 90 -30 0 -30 0 0 -89 c0 -70 -4 -93 -17 -109 -29 -33 -57 -36
-90 -8 -26 23 -28 30 -31 115 l-4 91 -30 0 -31 0 5 -98z"/>
</g>
</svg>
