<?xml version="1.0" standalone="no"?>
<!DOCTYPE svg PUBLIC "-//W3C//DTD SVG 20010904//EN"
 "http://www.w3.org/TR/2001/REC-SVG-20010904/DTD/svg10.dtd">
<svg version="1.0" xmlns="http://www.w3.org/2000/svg"
 width="370.000000pt" height="150.000000pt" viewBox="0 0 370.000000 150.000000"
 preserveAspectRatio="xMidYMid meet">

<g transform="translate(0.000000,150.000000) scale(0.100000,-0.100000)"
fill="#000000" stroke="none">
<path d="M550 1205 c-19 -23 -8 -50 23 -53 34 -4 45 19 20 47 -21 25 -27 26
-43 6z"/>
<path d="M2290 1199 c-9 -16 -8 -26 5 -45 20 -31 38 -30 65 3 24 30 15 46 -32
57 -21 5 -30 2 -38 -15z"/>
<path d="M512 1118 c-7 -7 -12 -19 -13 -27 0 -10 -4 -7 -9 7 -8 20 -12 21 -30
10 -12 -8 -19 -20 -16 -31 2 -9 0 -15 -5 -12 -13 9 -49 -14 -49 -30 0 -8 5
-15 10 -15 6 0 10 -9 10 -19 0 -28 28 -33 51 -10 14 14 19 29 16 45 -2 14 0
27 4 30 5 3 9 -15 9 -39 0 -25 3 -59 6 -76 l7 -31 -57 25 c-31 13 -76 30 -101
36 -46 12 -69 29 -47 37 21 7 14 42 -8 42 -11 0 -20 4 -20 9 0 16 -33 17 -62
3 -34 -16 -44 -32 -28 -42 16 -10 -11 -20 -58 -21 -20 0 -46 -4 -57 -9 -15 -6
-7 -9 30 -9 90 -2 296 -54 278 -71 -4 -5 -19 -10 -33 -13 -14 -2 4 -5 40 -6
62 -1 72 -5 170 -64 89 -55 103 -68 105 -91 1 -33 21 -48 58 -43 31 4 31 4 15
-22 -18 -29 4 -71 37 -71 14 0 34 -6 45 -12 16 -10 24 -10 41 0 18 12 26 10
62 -15 23 -15 74 -44 112 -65 39 -21 65 -38 59 -38 -6 0 -27 -11 -47 -24 l-35
-24 -6 23 c-6 23 -31 39 -46 30 -4 -3 -11 -17 -14 -31 -8 -31 8 -47 38 -38 16
5 15 1 -8 -28 -38 -51 -32 -59 9 -11 19 23 56 49 85 62 47 20 61 21 173 15 76
-4 144 -2 181 5 51 9 62 9 77 -5 10 -9 23 -13 28 -9 6 3 11 1 11 -4 0 -6 11
-11 25 -11 14 0 25 5 25 10 0 6 9 10 20 10 13 0 20 7 20 20 0 11 -4 20 -10 20
-26 0 -5 19 38 35 26 10 133 55 237 100 219 94 258 110 340 136 74 23 82 23
63 2 -9 -10 -23 -34 -33 -53 -23 -46 -22 -45 -41 -30 -13 12 -17 11 -25 -1
-11 -18 -11 -36 -1 -43 20 -12 49 9 75 55 41 75 127 124 181 103 14 -5 13 -8
-4 -23 -19 -16 -19 -16 0 -40 14 -17 27 -22 45 -19 16 3 25 1 25 -7 0 -18 19
-23 58 -17 25 3 33 9 29 21 -3 12 3 16 27 16 20 0 31 5 32 15 4 56 0 53 56 46
29 -4 66 -13 83 -21 16 -7 48 -16 69 -19 47 -6 206 -67 206 -78 0 -4 -7 -8
-15 -8 -21 0 -88 -35 -104 -54 -18 -21 -31 -20 -31 2 0 47 -49 55 -69 12 -27
-63 27 -76 110 -27 48 28 71 35 51 15 -16 -16 -15 -53 2 -67 16 -13 76 13 76
33 0 16 -32 46 -51 47 -8 1 2 5 21 10 60 15 99 1 300 -111 107 -59 228 -124
268 -144 l72 -36 0 83 0 84 -67 28 c-112 47 -286 136 -311 159 -22 19 -62 86
-62 102 0 3 7 1 15 -6 23 -19 43 -6 38 24 -6 30 -19 33 -45 9 -17 -15 -18 -15
-18 8 0 13 4 39 9 57 13 42 4 41 -15 -3 -18 -43 -18 -96 0 -139 l13 -32 -113
50 c-113 50 -130 65 -110 98 8 13 5 22 -9 38 -15 17 -29 20 -64 18 -45 -3 -46
-4 -46 -35 0 -33 -8 -42 -20 -23 -3 6 -19 10 -36 10 -22 0 -29 5 -29 19 0 11
-10 27 -22 35 l-22 16 26 0 c14 0 31 6 37 14 17 20 3 64 -25 83 -22 14 -26 14
-43 -1 -9 -9 -27 -16 -39 -16 -34 0 -28 -37 9 -59 l32 -19 -42 5 c-45 6 -74
-9 -64 -34 5 -14 -6 -14 -98 -8 -119 8 -176 31 -227 90 -37 41 -44 73 -13 54
18 -12 51 -7 51 8 0 4 -9 19 -19 32 l-18 24 -19 -22 c-17 -20 -19 -20 -26 -4
-5 11 -7 1 -4 -24 2 -23 11 -56 20 -74 20 -40 20 -39 -4 -39 -22 0 -26 -20 -8
-38 17 -17 28 -15 36 8 7 19 8 19 35 1 l29 -18 -74 -18 c-84 -20 -241 -76
-311 -111 l-47 -24 -10 26 c-9 22 -15 25 -40 22 -25 -4 -29 -1 -27 16 2 18 -4
21 -42 24 -51 4 -67 -7 -52 -36 14 -26 38 -34 62 -21 18 9 19 9 7 -11 -11 -18
-10 -23 7 -37 14 -11 15 -14 4 -10 -9 3 -26 -1 -38 -9 -19 -14 -22 -14 -27 0
-3 9 -12 16 -20 16 -8 0 -14 5 -14 10 0 6 5 10 10 10 17 0 11 36 -9 54 -20 19
-61 14 -61 -6 0 -6 -7 -16 -17 -23 -23 -17 -8 -35 30 -35 l32 0 -34 -18 c-42
-21 -51 -41 -22 -49 12 -3 21 -11 21 -18 0 -24 -223 -107 -340 -127 -62 -10
-68 -10 -117 15 -57 29 -87 65 -108 129 l-15 43 4 -40 4 -41 -36 4 c-34 4 -35
4 -28 -24 12 -46 25 -52 48 -24 16 20 22 22 26 10 3 -8 23 -33 45 -54 l41 -39
-40 7 c-117 20 -275 93 -282 130 -2 10 4 23 14 31 17 12 17 14 1 39 -10 14
-25 26 -33 26 -12 0 -10 5 7 19 l24 19 -42 42 c-42 43 -67 48 -79 15 -10 -25
5 -63 27 -70 l21 -7 -22 -15 c-12 -8 -19 -21 -16 -29 3 -8 3 -14 0 -14 -13 0
-64 42 -64 53 0 6 -10 21 -21 34 l-22 22 32 -12 c27 -10 33 -9 41 3 27 42 -8
111 -47 95 -10 -4 -27 -8 -38 -9 -26 -1 -31 -33 -8 -58 18 -21 18 -21 -4 -9
-12 6 -29 11 -38 11 -18 0 -135 68 -147 85 -14 19 -8 24 21 19 34 -7 46 8 29
36 -16 26 -33 25 -52 -1 -14 -20 -15 -19 -22 27 -5 35 -3 62 8 92 17 46 17 47
0 30z m-252 -82 c0 -19 -26 -27 -39 -12 -13 15 -4 26 21 26 10 0 18 -6 18 -14z
m2311 -246 c15 0 15 -4 6 -24 -13 -27 -57 -42 -57 -19 0 7 -10 18 -22 23 l-23
9 23 0 c12 1 25 8 29 17 4 11 9 12 16 5 6 -6 19 -11 28 -11z m-1001 -315 c0
-8 -9 -15 -20 -15 -11 0 -20 7 -20 15 0 8 9 15 20 15 11 0 20 -7 20 -15z"/>
<path d="M2207 1106 c-4 -9 -2 -18 3 -21 6 -4 10 -15 10 -26 0 -11 7 -22 15
-26 24 -8 56 27 53 56 -3 22 -9 26 -39 29 -25 2 -38 -2 -42 -12z"/>
<path d="M2877 1023 c-16 -15 -7 -72 12 -83 28 -14 87 -12 100 4 13 16 4 46
-14 46 -7 0 -24 9 -38 20 -26 20 -48 25 -60 13z"/>
<path d="M3261 1020 c-8 -4 -20 -6 -27 -3 -22 8 -35 -31 -18 -55 18 -26 52
-28 71 -4 14 16 14 16 9 -2 -9 -27 12 -46 51 -46 35 0 35 1 29 32 -9 46 -28
63 -55 49 -17 -9 -21 -9 -21 2 0 21 -23 37 -39 27z"/>
<path d="M1154 785 c-14 -35 24 -68 51 -45 22 18 18 47 -7 54 -33 9 -38 8 -44
-9z"/>
<path d="M2338 759 c-22 -12 -23 -52 -2 -73 14 -15 18 -14 44 6 35 28 37 42 8
62 -26 19 -27 19 -50 5z"/>
<path d="M2022 668 c-17 -17 -15 -67 2 -74 18 -7 68 16 73 33 5 14 -32 53 -50
53 -7 0 -18 -5 -25 -12z"/>
<path d="M1230 631 c-5 -11 -7 -27 -4 -35 8 -21 48 -21 65 0 11 14 9 19 -11
35 -31 23 -37 23 -50 0z"/>
<path d="M1317 604 c-11 -11 -8 -49 5 -62 17 -17 42 -15 61 6 22 24 22 52 0
52 -10 0 -27 3 -38 6 -11 3 -24 2 -28 -2z"/>
<path d="M2196 588 c-18 -26 -14 -34 19 -40 33 -7 50 14 35 41 -14 27 -35 27
-54 -1z"/>
<path d="M1788 565 c-45 -25 -48 -85 -4 -85 12 0 27 -5 33 -11 18 -18 53 7 53
39 0 31 -25 72 -43 72 -7 -1 -24 -7 -39 -15z"/>
<path d="M2858 529 c-25 -14 -22 -33 7 -49 31 -16 48 -4 43 31 -3 27 -24 34
-50 18z"/>
<path d="M1012 398 c-18 -18 -15 -45 8 -68 20 -20 50 -17 50 5 0 7 7 15 15 19
21 8 19 33 -4 46 -26 13 -54 13 -69 -2z"/>
<path d="M898 319 c-21 -12 -24 -49 -4 -49 8 0 16 -6 19 -12 3 -10 9 -8 23 4
15 14 16 21 6 43 -13 27 -18 29 -44 14z"/>
</g>
</svg>
