<?xml version="1.0" standalone="no"?>
<!DOCTYPE svg PUBLIC "-//W3C//DTD SVG 20010904//EN"
 "http://www.w3.org/TR/2001/REC-SVG-20010904/DTD/svg10.dtd">
<svg version="1.0" xmlns="http://www.w3.org/2000/svg"
 width="602.000000pt" height="642.000000pt" viewBox="0 0 602.000000 642.000000"
 preserveAspectRatio="xMidYMid meet">

<g transform="translate(0.000000,642.000000) scale(0.100000,-0.100000)"
fill="#000000" stroke="none">
<path d="M2798 6034 c-14 -5 -12 -12 18 -51 71 -93 79 -117 78 -233 0 -113
-19 -180 -69 -254 l-24 -36 159 0 c88 0 160 2 160 4 0 2 -14 34 -31 71 -44 93
-52 219 -19 315 20 59 81 160 102 168 4 2 8 7 8 10 0 8 -357 13 -382 6z"/>
<path d="M3262 5986 c-54 -59 -78 -102 -97 -176 -23 -87 -15 -192 20 -282 l27
-68 40 0 c28 0 39 4 35 13 -53 120 -59 143 -59 227 0 117 24 179 102 260 33
34 60 63 60 64 0 0 -20 2 -45 2 -40 1 -49 -3 -83 -40z"/>
<path d="M2614 5999 c59 -46 126 -200 126 -289 0 -65 -28 -133 -81 -199 l-51
-64 42 6 c48 6 70 24 104 81 83 142 67 329 -38 454 -25 28 -34 32 -78 32 l-51
0 27 -21z"/>
<path d="M3455 5992 c-41 -26 -90 -83 -122 -145 -25 -46 -28 -62 -27 -147 1
-101 24 -179 65 -216 20 -18 53 -18 379 5 74 5 178 12 230 16 176 10 187 13
224 57 38 44 85 159 93 229 7 56 1 60 -125 95 l-84 23 -32 -23 c-17 -13 -48
-29 -68 -35 -38 -12 -38 -13 -23 -41 8 -16 15 -40 15 -53 0 -35 -40 -88 -85
-114 -38 -21 -61 -25 -195 -38 -59 -6 -117 -21 -138 -38 -7 -5 -15 -7 -18 -5
-8 9 53 42 139 78 94 39 129 66 156 123 46 94 10 198 -72 212 -243 40 -271 42
-312 17z"/>
<path d="M2375 5994 c-96 -11 -168 -28 -189 -45 -36 -29 -59 -107 -54 -190 5
-89 23 -113 124 -164 95 -47 138 -74 130 -82 -3 -3 -11 -1 -18 4 -23 18 -80
32 -178 44 -110 12 -171 36 -196 74 -18 28 -23 84 -10 120 6 17 1 23 -28 33
-36 13 -85 54 -102 84 -8 15 -15 16 -49 7 -94 -24 -176 -62 -184 -83 -15 -38
7 -146 42 -210 45 -82 67 -96 138 -87 53 6 328 -7 552 -28 127 -11 151 -8 194
25 134 102 150 315 32 432 -64 65 -102 77 -204 66z"/>
<path d="M3875 5943 c14 -35 26 -98 22 -115 -10 -36 10 -17 21 21 24 78 13
111 -35 111 -10 0 -13 -5 -8 -17z"/>
<path d="M2073 5943 c-21 -4 -23 -9 -22 -71 1 -37 5 -80 9 -97 l8 -30 1 32 c0
17 10 60 21 95 22 70 23 79 13 77 -5 -1 -18 -4 -30 -6z"/>
<path d="M4398 5757 c-5 -65 -44 -152 -92 -204 -20 -22 -36 -43 -36 -47 0 -3
15 -6 33 -6 24 0 41 9 64 33 44 45 84 131 90 191 5 48 4 52 -25 68 l-30 18 -4
-53z"/>
<path d="M1498 5749 c-38 -22 -10 -171 47 -245 19 -25 34 -34 56 -34 16 0 29
2 29 5 0 2 -11 20 -25 40 -32 48 -62 131 -71 194 -7 54 -9 56 -36 40z"/>
<path d="M4550 5723 c-1 -45 -65 -203 -90 -218 -21 -13 -9 -23 35 -29 128 -20
355 -126 490 -230 41 -32 41 -29 -9 44 -75 113 -348 409 -404 439 -19 10 -22
9 -22 -6z"/>
<path d="M1273 5555 c-112 -113 -172 -186 -278 -340 -42 -62 -48 -87 -10 -45
44 48 308 195 433 240 61 22 72 32 51 45 -17 11 -59 116 -68 170 l-8 50 -120
-120z"/>
<path d="M4080 5456 c-47 -7 -130 -23 -185 -35 -290 -62 -436 -81 -695 -92
-283 -12 -495 -3 -750 32 -80 11 -172 24 -205 29 -33 4 -116 18 -185 30 -258
46 -518 5 -775 -121 -237 -116 -439 -301 -590 -541 -52 -82 -151 -302 -208
-458 -112 -308 -162 -570 -174 -895 -6 -187 6 -337 36 -455 25 -97 39 -128
110 -247 207 -342 488 -497 873 -481 189 8 392 63 723 196 401 160 729 221
1135 209 309 -9 479 -49 774 -181 372 -168 449 -194 632 -217 162 -20 399 13
538 74 221 97 344 234 451 502 76 190 89 326 60 640 -15 171 -41 307 -112 585
-109 429 -258 814 -397 1023 -112 169 -373 329 -631 388 -114 26 -310 33 -425
15z m185 -301 c63 -15 189 -90 270 -161 219 -192 320 -421 495 -1124 48 -192
72 -376 72 -545 0 -126 -3 -154 -22 -241 -23 -102 -129 -253 -231 -330 -127
-96 -230 -125 -439 -126 -154 -1 -144 -3 -590 96 -348 78 -784 117 -1005 92
-66 -8 -151 -17 -190 -20 -238 -21 -399 -52 -528 -102 -20 -7 -54 -18 -75 -23
-20 -5 -109 -32 -197 -61 -142 -46 -172 -52 -271 -57 -87 -4 -128 -2 -185 12
-170 41 -333 145 -421 269 -100 143 -126 245 -121 479 2 119 29 402 39 419 2
3 8 28 14 55 24 125 72 344 86 393 27 93 95 271 132 345 45 92 160 260 220
323 124 130 306 248 451 292 67 21 86 22 269 17 108 -3 215 -10 237 -16 263
-68 441 -100 618 -112 171 -11 374 -1 521 26 45 8 117 21 162 29 45 8 126 25
180 37 184 40 417 55 509 34z m574 -19 c35 -37 25 -68 -26 -82 -34 -10 -43
-10 -43 0 0 7 -21 27 -46 45 -61 43 -54 49 72 59 11 1 31 -9 43 -22z m217 -31
c33 -21 22 -38 -41 -60 -49 -16 -73 -35 -45 -35 6 0 10 -7 10 -15 0 -17 16
-20 25 -5 6 10 71 4 111 -10 13 -5 31 -33 49 -77 15 -37 50 -116 77 -175 53
-117 56 -133 32 -166 -17 -25 -63 -29 -125 -10 l-39 11 30 19 c17 10 33 25 37
34 6 17 -35 130 -67 181 l-20 33 -32 -20 c-41 -25 -77 -26 -84 -2 -21 64 -50
78 -39 19 5 -25 -1 -43 -26 -82 l-31 -49 16 -53 c19 -58 32 -67 42 -28 6 25 4
42 -11 77 -5 12 0 18 17 23 13 4 38 21 56 36 55 49 112 35 112 -26 0 -17 5
-36 11 -42 21 -21 -12 -53 -53 -53 -28 0 -41 -6 -56 -27 -17 -23 -23 -26 -33
-15 -22 21 -29 13 -23 -25 3 -24 0 -45 -8 -56 -13 -17 -15 -17 -47 5 -19 13
-38 36 -43 53 -25 87 -44 136 -73 191 l-33 61 34 12 c38 14 42 27 17 51 -16
15 -20 15 -44 1 -25 -14 -30 -14 -63 4 l-37 20 28 6 c15 3 39 12 53 19 41 22
148 120 171 157 12 19 31 38 43 42 24 9 67 -1 102 -24z m-4058 -240 c12 -10
11 -18 -2 -43 -26 -51 -23 -54 52 -47 78 8 131 32 186 83 l38 37 -17 -35 c-29
-58 -94 -139 -125 -155 -18 -9 -56 -15 -100 -15 -39 0 -80 -5 -91 -10 -25 -14
-71 -105 -67 -133 2 -16 13 -25 41 -31 53 -14 89 1 101 42 14 50 21 38 21 -34
0 -88 -6 -92 -126 -77 -112 15 -133 29 -126 88 2 23 12 58 22 78 10 21 16 40
13 42 -2 2 -28 -7 -58 -21 l-55 -25 -17 21 c-20 24 -24 60 -8 60 6 0 28 18 50
40 33 33 40 37 40 20 0 -25 45 -28 78 -4 31 21 62 86 62 128 l0 35 38 -15 c20
-9 43 -22 50 -29z m4113 -345 c21 0 29 -5 29 -18 0 -30 10 -32 48 -11 35 20
36 20 61 1 43 -32 38 -48 -21 -70 -54 -20 -68 -41 -48 -72 8 -13 15 -12 47 6
28 16 44 19 61 13 47 -18 13 -51 -78 -74 -35 -9 -76 -23 -90 -30 -20 -11 -29
-11 -43 0 -24 17 -22 20 24 34 32 10 39 16 34 29 -4 9 -8 23 -8 30 0 16 -10
15 -51 -2 -32 -13 -36 -13 -67 14 l-34 28 39 16 c21 9 42 16 47 16 15 0 10 26
-11 52 -14 19 -16 28 -7 37 6 6 18 9 25 6 8 -3 27 -5 43 -5z m-4376 -80 c15
-33 16 -46 7 -60 -10 -16 -7 -19 19 -25 19 -4 34 -16 39 -31 9 -22 13 -24 52
-17 88 14 93 13 93 -32 0 -36 -2 -40 -25 -38 -14 1 -49 3 -78 5 -35 2 -51 7
-48 15 7 18 -15 28 -58 28 -49 0 -56 -16 -15 -34 38 -17 45 -35 28 -69 -7 -15
-15 -31 -17 -35 -3 -5 4 -5 14 1 11 5 47 13 81 17 58 6 62 6 78 -19 21 -32 15
-42 -30 -49 -49 -8 -190 -115 -174 -132 3 -2 27 2 54 10 57 18 69 13 25 -10
-18 -9 -56 -42 -86 -73 -61 -64 -68 -62 -80 18 -6 37 -4 46 12 55 25 14 124
106 124 116 0 4 -16 3 -35 -2 -27 -8 -43 -7 -65 4 -28 14 -40 13 -40 -5 0 -4
10 -8 23 -8 31 0 51 -15 44 -34 -4 -10 -18 -15 -41 -14 -49 2 -62 -13 -70 -78
-7 -62 -37 -114 -66 -114 -18 0 -48 51 -65 110 -7 24 -7 24 12 8 33 -30 52
-22 73 28 11 25 20 48 20 51 0 3 -18 3 -39 0 -25 -3 -47 0 -57 8 -17 12 -17
14 -1 39 16 24 19 25 33 11 9 -8 30 -15 48 -15 25 0 35 6 44 25 11 23 9 27
-14 35 -32 13 -26 33 11 40 37 7 42 24 10 38 -38 17 -31 34 10 26 27 -5 35 -3
35 8 0 8 -10 20 -22 26 -22 10 -21 11 8 11 42 1 54 29 16 37 -49 10 -52 13
-52 40 0 25 1 26 48 19 l49 -6 16 43 c10 24 17 52 17 61 0 27 14 13 35 -33z
m4666 -151 c48 -38 49 -56 4 -134 l-35 -60 0 51 c0 38 -5 55 -20 69 -19 17
-27 18 -78 7 -31 -7 -89 -27 -129 -46 -70 -34 -73 -36 -68 -65 3 -17 7 -44 9
-59 3 -15 1 -34 -4 -42 -8 -12 -14 -11 -37 6 -27 20 -28 24 -26 100 l2 79 53
13 c124 30 246 73 263 92 10 11 20 20 23 20 2 0 22 -14 43 -31z m-4880 -92
c-4 -31 -10 -60 -14 -63 -8 -9 -27 5 -27 20 0 17 40 109 45 104 2 -2 0 -29 -4
-61z m4775 -33 c19 -5 22 -14 26 -80 2 -50 8 -79 19 -89 15 -15 20 -14 58 6
32 16 40 26 36 40 -12 36 5 19 30 -30 14 -28 22 -57 19 -65 -3 -8 -22 -20 -42
-26 -21 -6 -43 -14 -51 -16 -11 -4 -10 -8 4 -24 22 -24 38 -25 76 -3 28 16 29
16 54 -7 35 -33 31 -46 -16 -54 l-42 -7 22 -22 c25 -28 26 -40 4 -74 -16 -24
-16 -26 2 -40 11 -7 29 -12 40 -11 16 2 20 10 18 38 -3 32 -2 33 11 17 17 -22
31 -92 21 -107 -16 -26 -100 0 -129 41 l-14 21 -36 -27 c-29 -22 -35 -32 -30
-51 5 -19 -2 -31 -31 -58 -35 -33 -36 -34 -15 -41 26 -8 69 19 85 53 13 28 26
28 59 -3 28 -26 32 -40 16 -50 -19 -12 -10 -22 35 -39 49 -19 75 -48 75 -84 0
-32 -27 -39 -54 -13 -19 18 -30 21 -63 15 -86 -13 -80 -38 12 -50 63 -9 98
-41 93 -86 -4 -43 -22 -45 -55 -6 -81 94 -114 113 -106 61 3 -16 9 -38 15 -49
7 -15 7 -28 -2 -44 -11 -20 -9 -25 20 -48 24 -19 30 -30 26 -48 -5 -20 -1 -25
26 -32 24 -6 34 -16 40 -37 12 -43 4 -53 -43 -57 l-42 -3 -24 -69 c-32 -96
-30 -109 13 -63 l35 38 14 -35 c19 -45 19 -45 -9 -75 -16 -18 -27 -47 -35 -95
-14 -78 -32 -121 -60 -136 -28 -14 -29 -14 -47 23 -11 19 -16 51 -15 79 l2 47
-40 -22 c-39 -21 -39 -22 -22 -42 17 -20 41 -69 41 -84 0 -5 -18 -20 -40 -35
l-40 -26 21 -29 c21 -29 19 -51 -5 -51 -7 0 -32 14 -56 31 -53 39 -98 55 -180
64 -36 4 -77 13 -92 21 -27 14 -105 130 -94 141 3 3 28 -8 56 -25 l50 -31 0
24 c0 27 48 112 67 119 6 3 22 -3 35 -13 34 -25 123 -61 153 -61 31 0 113 40
138 68 11 11 23 38 29 59 28 109 40 172 35 185 -7 19 -115 32 -134 16 -22 -18
-14 -37 19 -46 21 -5 39 -20 51 -39 18 -31 18 -31 -13 -81 -16 -27 -30 -56
-30 -65 0 -20 -56 -67 -80 -67 -22 0 -41 22 -61 74 -19 46 -17 46 -126 23 -40
-8 -73 -11 -73 -7 0 5 20 20 44 34 48 28 122 128 170 229 30 65 47 74 90 48
41 -24 82 -33 117 -26 45 10 38 44 -23 104 -53 53 -88 66 -88 33 0 -11 -8 -27
-19 -36 -18 -16 -20 -16 -47 7 l-27 24 25 34 c41 56 42 59 11 53 -25 -5 -31
-1 -51 34 -12 22 -22 42 -22 46 0 3 26 6 58 6 53 0 61 3 91 34 l32 33 -53 23
c-29 12 -55 24 -57 26 -3 3 17 27 44 54 27 28 46 50 42 50 -3 0 -32 -14 -63
-31 -67 -36 -85 -29 -66 24 18 51 16 57 -17 47 -23 -6 -31 -5 -35 7 -10 26 -7
33 18 33 30 0 40 13 31 41 -4 12 -12 18 -21 15 -8 -3 -21 -9 -30 -13 -12 -4
-10 4 10 33 17 25 26 52 26 76 0 35 2 38 30 38 16 0 33 -7 38 -15 7 -13 14
-14 36 -5 19 7 33 7 47 -1 29 -15 18 -33 -27 -42 -68 -15 -88 -22 -85 -32 1
-5 19 -8 39 -6 20 2 51 5 67 5 22 1 34 9 47 31 30 53 23 87 -27 133 -39 35
-44 45 -39 70 5 25 -11 98 -32 150 -6 13 25 16 62 6z m-85 -119 c-1 -38 -7
-79 -12 -91 -9 -26 -42 -50 -81 -59 l-28 -7 26 47 c24 42 26 54 21 120 -6 82
-1 90 48 70 30 -11 30 -12 26 -80z m-4353 -90 c20 -44 14 -82 -17 -117 l-29
-33 -26 24 c-32 30 -32 36 -1 37 42 3 57 23 53 71 -4 49 3 55 20 18z m-142
-240 c36 -34 37 -36 31 -92 -4 -32 -11 -90 -17 -130 -13 -83 -4 -130 35 -187
29 -42 19 -46 -33 -11 -40 27 -68 59 -95 112 -15 29 -15 40 -1 135 16 106 13
163 -9 171 -18 6 10 37 34 37 9 0 34 -16 55 -35z m-192 -27 l38 -31 -4 -108
-4 -108 -44 -56 c-81 -105 -116 -121 -163 -75 -14 13 -17 25 -12 54 8 40 20
47 28 16 7 -27 33 -25 61 3 45 45 58 254 18 293 -13 13 -12 17 4 29 27 20 35
19 78 -17z m-26 -526 c6 -9 12 -28 12 -42 0 -34 8 -42 30 -30 19 10 37 -5 59
-47 11 -21 8 -25 -24 -40 -39 -19 -40 -21 -24 -57 11 -24 13 -24 36 -9 14 9
29 26 33 37 7 16 9 12 9 -21 1 -31 -4 -45 -19 -56 -22 -15 -45 -113 -29 -123
5 -3 21 13 36 35 24 33 32 38 56 34 l28 -6 -21 57 c-24 62 -21 76 16 76 28 0
37 15 32 59 l-3 30 -32 -16 c-27 -12 -36 -13 -48 -3 -18 15 -20 40 -2 40 7 0
28 11 47 25 41 30 46 30 86 6 l30 -19 -11 -68 c-11 -68 -19 -79 -68 -96 -10
-4 21 -94 37 -107 9 -8 22 -8 45 0 24 9 31 17 31 37 0 26 1 26 25 -10 43 -63
28 -96 -54 -118 -55 -14 -68 -9 -87 37 l-16 36 -19 -43 c-11 -25 -19 -58 -17
-75 3 -28 6 -30 51 -33 64 -4 191 25 213 49 12 13 15 28 10 49 l-6 31 29 -20
c43 -31 55 -50 55 -88 0 -25 -7 -41 -24 -55 -22 -18 -34 -19 -131 -12 -102 6
-110 5 -164 -20 -70 -32 -82 -32 -112 -4 -29 27 -30 53 -2 55 36 3 49 22 49
76 l0 51 -35 -34 c-30 -29 -36 -32 -52 -19 -10 7 -20 15 -22 16 -2 1 2 9 8 17
7 8 11 35 9 62 l-3 47 -24 -47 c-36 -73 -63 -74 -76 -3 -6 30 -4 36 7 32 7 -3
27 8 43 25 26 27 28 33 19 67 -8 34 -12 38 -39 36 -21 -2 -40 6 -65 27 -28 25
-31 30 -14 30 11 0 30 7 42 16 19 13 22 22 17 47 -4 18 -16 47 -26 65 -10 18
-19 35 -19 37 0 11 77 -10 88 -23z m5077 -18 c19 -8 48 -61 40 -74 -10 -16
-25 -12 -32 8 -3 9 -17 29 -31 45 -20 21 -22 27 -10 27 9 0 24 -3 33 -6z"/>
<path d="M4040 5102 c-75 -25 -99 -38 -143 -81 l-38 -36 -132 -6 c-132 -7
-132 -7 -159 19 -22 20 -41 27 -85 30 -52 3 -62 1 -99 -26 -74 -54 -124 -145
-124 -224 0 -19 -9 -41 -22 -55 l-21 -23 -22 68 c-24 77 -85 202 -97 202 -5 0
-2 -13 7 -29 40 -79 57 -332 25 -391 l-12 -22 -30 28 c-26 25 -29 26 -19 7 6
-13 20 -27 31 -33 19 -10 19 -13 5 -40 -36 -70 -155 -90 -229 -39 -47 32 -50
53 -15 102 16 22 29 47 28 56 0 14 -1 14 -6 1 -11 -29 -44 -70 -57 -70 -6 0
-20 23 -30 51 -26 70 -18 208 17 301 13 37 21 65 16 63 -13 -9 -77 -149 -91
-199 -18 -67 -35 -56 -57 39 -19 79 -51 134 -110 186 -40 36 -65 50 -97 55
-53 8 -73 1 -111 -36 l-31 -30 -68 16 c-76 18 -234 15 -291 -6 -25 -9 -36 -9
-55 3 -13 8 -47 20 -76 26 -140 29 -337 -43 -453 -166 -132 -141 -286 -417
-348 -623 -18 -58 -41 -133 -51 -168 -11 -34 -20 -75 -19 -90 0 -19 5 -11 14
25 16 57 114 273 124 273 4 0 5 -16 3 -36 -11 -89 50 -238 120 -299 21 -18 60
-39 86 -46 62 -18 162 -15 203 5 18 9 33 15 34 14 1 -2 14 -25 30 -53 81 -143
297 -281 448 -287 26 0 47 -5 47 -10 0 -4 -4 -8 -9 -8 -15 0 -41 -66 -41 -104
0 -49 32 -109 75 -142 34 -26 151 -62 139 -43 -3 5 -11 9 -19 9 -36 0 -115
100 -115 146 0 35 44 94 85 114 94 46 202 14 437 -126 174 -105 208 -118 313
-118 82 -1 96 2 164 34 41 19 124 70 185 113 189 134 260 159 326 115 50 -33
75 -88 61 -131 -16 -48 -66 -95 -120 -111 l-46 -15 36 0 c85 -2 182 48 214
110 19 35 19 66 0 118 l-14 41 62 0 c81 0 179 29 294 86 134 66 245 175 305
298 19 39 26 46 43 41 11 -4 43 -9 70 -12 62 -6 150 25 202 71 46 39 84 124
91 200 l5 60 24 -55 c22 -49 76 -189 101 -264 21 -60 11 -4 -18 110 -49 188
-117 380 -193 545 -42 91 -164 257 -237 323 -149 134 -329 192 -460 149z m115
-72 c4 -6 -15 -31 -42 -56 l-48 -45 51 31 c29 18 70 34 93 37 71 10 90 -31 29
-63 -43 -22 -31 -25 34 -7 53 15 59 15 83 -1 30 -20 29 -36 -3 -52 -36 -18
-33 -19 24 -16 56 4 84 -8 84 -35 0 -7 -10 -18 -22 -23 l-23 -9 22 0 c66 -2
117 -71 52 -71 -34 0 -20 -17 19 -24 76 -12 94 -72 26 -87 l-29 -7 32 -1 c41
-1 89 -41 79 -66 -5 -14 -14 -16 -44 -12 l-37 6 45 -22 c31 -15 52 -35 68 -63
40 -75 2 -99 -65 -41 l-37 32 42 -57 c48 -63 61 -112 39 -142 -14 -19 -16 -19
-41 -3 -14 10 -37 35 -51 57 -30 48 -42 53 -19 9 9 -18 17 -53 18 -78 1 -43
-1 -46 -24 -46 -20 0 -30 10 -47 45 -13 24 -23 59 -23 77 0 18 -3 33 -7 33 -5
0 -6 -27 -5 -61 3 -48 1 -60 -10 -57 -19 6 -56 76 -63 120 -8 48 -22 50 -17 3
7 -61 -16 -39 -64 62 -60 126 -99 186 -164 250 -64 62 -174 123 -221 122 -32
0 -32 -1 12 -13 53 -14 86 -38 137 -98 92 -107 121 -162 174 -322 59 -180 96
-254 152 -303 l47 -41 -16 -38 c-49 -117 -158 -228 -290 -296 -173 -89 -326
-112 -410 -62 -34 19 -66 28 -135 34 -84 8 -97 12 -156 51 -36 23 -96 76 -135
117 -145 156 -200 337 -167 554 9 57 21 115 26 130 10 25 14 26 44 17 44 -12
108 -11 149 2 49 17 125 74 149 113 15 25 31 36 63 44 60 16 153 79 250 169
185 175 207 192 207 160 0 -7 -12 -30 -26 -52 -25 -37 -22 -35 27 15 71 73
146 109 164 80z m-1891 -63 l59 -12 -2 -77 c-1 -44 3 -86 9 -99 12 -21 11 -22
-30 -15 -23 4 -56 14 -74 23 -53 27 -248 165 -241 171 20 21 195 26 279 9z
m1556 -16 c0 -14 -185 -188 -220 -206 -32 -16 -33 -16 -26 1 29 74 38 113 34
156 -4 42 -3 47 16 51 41 8 196 7 196 -2z m-1902 -75 c26 -13 89 -49 140 -79
113 -67 212 -108 270 -112 38 -3 52 -11 112 -69 90 -87 176 -129 269 -130 36
-1 73 3 82 7 38 19 72 -221 50 -361 -14 -87 -69 -238 -108 -295 -51 -74 -142
-154 -224 -197 l-80 -41 -50 16 c-79 27 -155 22 -225 -12 -54 -27 -65 -29
-124 -22 -75 8 -127 25 -213 71 -72 38 -182 143 -221 210 l-27 46 27 29 c59
63 90 159 104 318 19 215 56 321 149 419 69 73 32 51 -49 -29 -94 -92 -125
-155 -185 -378 -18 -67 -37 -71 -45 -11 -5 33 -7 28 -11 -32 -2 -40 -11 -79
-19 -89 -13 -16 -15 -16 -27 1 -7 10 -13 32 -14 48 -1 23 -4 17 -12 -23 -7
-30 -19 -59 -29 -64 -26 -17 -48 9 -49 57 l0 41 -15 -37 c-17 -40 -39 -54 -60
-37 -18 15 -17 69 1 93 8 11 15 25 15 30 0 6 -10 -4 -21 -21 -23 -36 -43 -42
-53 -17 -12 32 -5 52 34 102 22 27 40 54 40 58 0 5 -12 -6 -26 -23 -14 -18
-34 -33 -45 -33 -33 0 -21 50 17 75 71 46 71 45 41 33 -23 -10 -31 -9 -44 5
-25 24 -3 63 50 88 29 14 34 19 14 14 -20 -4 -29 -1 -34 11 -8 21 38 66 102
99 48 25 48 26 -3 11 -16 -5 -24 -3 -28 9 -9 23 29 60 79 75 39 12 40 13 19
21 -28 11 -25 26 9 51 27 20 105 27 184 16 l50 -7 -49 14 c-27 7 -56 20 -64
28 -13 13 -12 17 8 27 31 17 103 7 180 -24 79 -32 90 -27 16 7 -55 25 -69 41
-43 50 19 6 85 -11 135 -37z m1394 -228 l37 -36 -39 -36 c-39 -35 -92 -56
-143 -56 l-27 0 26 53 c15 28 41 74 58 100 27 42 32 46 41 30 6 -10 27 -35 47
-55z m-552 -50 c36 -68 32 -80 -29 -71 -39 5 -131 42 -131 53 0 3 13 16 30 28
16 12 37 36 46 53 14 29 17 30 34 14 10 -9 32 -43 50 -77z m320 -244 c-6 -32
-10 -91 -10 -130 0 -95 -18 -119 -87 -119 -34 0 -57 7 -80 23 l-33 23 0 109
c0 60 -3 116 -6 125 -6 14 -1 13 27 -4 52 -32 120 -29 161 8 18 16 34 28 35
27 2 -1 -2 -29 -7 -62z m-143 -336 c11 -13 25 -36 31 -53 l10 -30 1 31 c2 68
92 103 127 49 9 -14 15 -27 13 -28 -2 -1 -22 -12 -43 -23 -65 -35 -97 -123
-61 -170 14 -18 14 -17 9 13 -8 41 16 80 60 98 47 20 71 9 106 -45 39 -60 162
-179 225 -215 l47 -28 -49 -24 c-26 -13 -65 -38 -85 -54 -30 -24 -38 -26 -38
-13 0 9 -27 43 -60 75 -65 63 -100 80 -54 27 59 -71 69 -138 28 -187 -41 -49
-179 -112 -257 -118 -63 -5 -70 -3 -152 38 -48 24 -100 58 -117 78 -26 29 -30
40 -25 75 5 43 26 95 54 136 14 20 10 18 -22 -9 -49 -43 -95 -99 -95 -117 0
-8 -4 -14 -9 -14 -12 0 -120 73 -121 81 0 4 19 14 41 23 104 42 223 154 278
264 12 23 28 42 36 42 56 0 110 -62 100 -115 l-5 -30 16 23 c33 48 -1 141 -67
181 -27 16 -27 19 -13 39 20 29 64 29 91 0z"/>
<path d="M4176 4832 c5 -5 32 -25 60 -45 97 -69 195 -227 174 -281 -19 -50
-45 -35 -161 99 -24 27 -51 57 -59 66 -21 22 -170 113 -176 107 -3 -3 10 -14
28 -25 62 -37 108 -85 168 -177 102 -156 126 -184 169 -197 34 -10 44 -9 66 5
36 24 57 78 49 124 -7 42 -59 128 -113 186 -33 35 -190 146 -207 146 -5 0 -4
-4 2 -8z"/>
<path d="M3690 4657 c-124 -35 -239 -135 -278 -240 -59 -158 -24 -341 83 -436
83 -73 218 -117 325 -107 132 12 261 107 326 241 28 58 34 81 34 136 0 224
-161 398 -384 414 -34 3 -81 -1 -106 -8z m209 -60 c210 -69 297 -333 172 -528
-36 -58 -91 -95 -194 -130 -77 -27 -91 -28 -149 -20 -153 22 -283 138 -303
273 -9 62 10 179 39 236 26 52 104 130 157 158 47 25 137 44 179 38 19 -3 64
-15 99 -27z"/>
<path d="M3670 4534 c-109 -50 -160 -124 -168 -242 -6 -90 13 -145 71 -205 62
-63 127 -92 207 -91 122 0 199 54 242 167 91 240 -131 474 -352 371z m154
-219 c18 -14 45 -25 59 -25 37 0 34 -16 -5 -24 -17 -3 -40 -14 -51 -23 -23
-22 -47 -77 -48 -112 0 -23 -1 -24 -9 -6 -5 11 -12 37 -15 59 -7 44 -47 86
-81 86 -12 0 -26 5 -29 10 -3 6 4 10 15 10 50 0 108 61 111 117 1 10 5 -1 11
-24 6 -30 19 -50 42 -68z"/>
<path d="M1634 4716 c-125 -84 -234 -234 -234 -321 0 -92 79 -117 153 -48 16
16 53 76 82 134 29 58 70 127 90 153 20 26 34 50 32 53 -8 7 -111 -126 -146
-190 -47 -82 -78 -117 -107 -117 -34 0 -52 40 -36 82 23 63 79 142 149 214 39
41 71 74 70 74 -1 0 -25 -15 -53 -34z"/>
<path d="M2027 4665 c-93 -26 -197 -117 -249 -219 -79 -154 -30 -389 102 -490
151 -115 323 -126 482 -30 131 80 204 263 167 423 -14 64 -57 150 -100 202
-85 102 -262 153 -402 114z m214 -51 c99 -29 170 -96 221 -209 18 -41 23 -68
23 -150 0 -91 -3 -105 -28 -153 -77 -147 -235 -224 -381 -186 -151 39 -239
124 -281 268 -40 137 19 281 156 382 84 61 187 78 290 48z"/>
<path d="M2034 4540 c-42 -13 -119 -83 -151 -137 -38 -66 -44 -173 -13 -245
33 -79 64 -114 127 -144 152 -72 332 -2 400 156 22 53 21 156 -4 210 -48 107
-130 161 -253 166 -41 2 -89 -1 -106 -6z"/>
<path d="M4876 3927 c3 -10 9 -15 12 -12 3 3 0 11 -7 18 -10 9 -11 8 -5 -6z"/>
<path d="M4911 3848 c52 -130 77 -207 83 -258 4 -30 9 -71 12 -91 7 -59 -14
-252 -37 -324 -39 -128 -116 -228 -202 -266 -42 -17 -64 -21 -127 -17 -89 6
-132 25 -221 100 -124 106 -142 118 -169 118 -36 0 -46 -15 -52 -72 -5 -45 -4
-49 27 -68 18 -11 63 -45 101 -75 169 -134 315 -162 461 -89 92 47 193 174
237 299 36 104 30 320 -15 498 -22 88 -96 284 -110 292 -5 4 0 -18 12 -47z"/>
<path d="M980 3836 c-28 -67 -67 -195 -79 -261 -74 -415 15 -713 249 -836 39
-21 59 -24 150 -24 125 0 155 12 289 112 91 69 131 93 156 93 15 0 15 2 1 22
-9 12 -16 39 -16 59 0 45 -19 63 -58 55 -15 -4 -77 -50 -137 -102 -144 -124
-189 -149 -276 -147 -83 2 -117 19 -190 94 -70 72 -114 159 -139 274 -23 106
-25 206 -5 368 12 105 53 273 77 320 5 9 6 17 3 17 -3 0 -14 -20 -25 -44z"/>
<path d="M4570 3829 c-60 -6 -120 -22 -120 -33 0 -3 15 0 32 5 18 5 52 9 75 9
52 0 58 -22 14 -45 -53 -27 -43 -35 11 -10 59 27 100 32 116 12 14 -16 5 -28
-38 -50 -19 -10 -26 -15 -15 -12 53 17 111 17 124 2 11 -14 9 -20 -16 -43
l-28 -27 32 6 c23 5 38 1 55 -12 20 -17 21 -21 8 -36 -8 -10 -28 -24 -45 -32
l-30 -14 36 6 c28 4 40 1 54 -15 17 -19 17 -20 -15 -50 -32 -30 -32 -30 -7
-30 13 0 30 -7 37 -15 17 -20 -10 -52 -49 -58 l-26 -4 26 -2 c14 0 34 -10 44
-21 17 -19 17 -21 0 -40 -10 -11 -28 -20 -39 -20 -18 -1 -17 -3 7 -16 38 -20
33 -54 -11 -75 -28 -15 -30 -17 -12 -22 27 -7 26 -43 -2 -58 -12 -7 -34 -12
-49 -11 -28 1 -28 1 -8 -19 17 -17 18 -23 8 -36 -10 -11 -28 -14 -75 -11 -55
3 -60 2 -43 -10 50 -35 0 -62 -68 -38 -51 18 -56 13 -11 -10 42 -22 178 -31
217 -14 52 21 139 141 172 239 41 117 33 301 -16 404 -13 29 -45 76 -71 105
-75 85 -150 113 -274 101z"/>
<path d="M1099 3762 c-33 -21 -56 -47 -78 -88 -143 -261 -61 -674 155 -780 46
-22 64 -26 108 -21 51 5 148 45 161 67 9 14 7 14 -59 -20 -32 -17 -65 -30 -72
-30 -25 0 -27 23 -3 41 28 22 15 24 -21 4 -33 -19 -55 -19 -74 0 -19 20 -11
42 23 60 25 13 23 14 -25 8 -46 -5 -53 -3 -63 15 -9 17 -7 23 10 36 21 14 20
15 -17 18 -36 3 -39 6 -42 36 -3 26 1 34 19 40 21 8 21 9 -9 15 -58 12 -67 86
-14 106 23 8 24 10 6 10 -29 1 -56 34 -47 57 9 26 22 34 58 35 l30 1 -33 12
c-38 13 -56 38 -47 65 7 22 58 46 80 37 26 -10 16 3 -15 19 -23 12 -30 22 -30
46 0 36 29 51 75 38 48 -14 53 -10 12 12 -44 23 -46 47 -5 67 25 12 70 7 134
-14 10 -3 0 6 -23 21 -48 29 -52 39 -24 55 22 11 106 -1 144 -21 19 -11 20
-10 9 3 -26 32 -135 72 -207 76 -64 3 -74 1 -116 -26z"/>
<path d="M4358 3650 c-67 -12 -161 -40 -155 -47 3 -3 21 0 39 5 59 18 105 23
132 12 38 -14 44 -39 16 -60 -23 -18 -22 -18 30 -4 132 34 154 -38 26 -82 -53
-18 -58 -29 -5 -14 38 11 109 13 133 4 9 -3 16 -17 16 -30 0 -29 -51 -64 -92
-64 -16 0 -28 -4 -28 -10 0 -5 22 -10 49 -10 49 0 76 -16 63 -36 -15 -24 -54
-34 -129 -35 l-78 -1 72 -13 c40 -8 77 -16 83 -20 38 -24 -40 -49 -128 -41
-55 4 -61 3 -32 -5 57 -16 90 -31 90 -40 0 -13 -66 -22 -113 -16 l-42 6 40
-16 c26 -11 73 -16 135 -17 79 -1 102 3 135 21 133 71 151 272 39 434 -50 73
-163 103 -296 79z"/>
<path d="M1378 3619 c-76 -18 -146 -77 -191 -163 -30 -57 -32 -241 -3 -300 52
-105 171 -177 268 -162 40 6 133 54 123 64 -2 2 -17 -6 -33 -18 -39 -29 -103
-37 -121 -16 -8 9 -12 18 -10 20 2 1 15 10 29 19 25 17 25 17 -20 11 -36 -5
-49 -3 -60 11 -18 22 -4 44 41 67 l34 17 -35 -5 c-47 -6 -94 8 -98 30 -6 27
11 38 75 52 l58 12 -45 1 c-61 2 -95 20 -95 51 0 21 7 27 43 35 l43 11 -32 9
c-18 6 -37 18 -43 28 -9 15 -6 22 14 39 20 16 33 19 75 14 l50 -7 -35 18 c-22
12 -35 25 -35 38 0 18 7 20 72 20 67 0 71 1 56 17 -8 9 -12 22 -8 27 12 20 98
12 155 -14 63 -29 39 -6 -32 31 -51 26 -149 55 -183 53 -11 -1 -37 -5 -57 -10z"/>
<path d="M4160 3590 c-8 -5 -10 -10 -5 -10 6 0 17 5 25 10 8 5 11 10 5 10 -5
0 -17 -5 -25 -10z"/>
<path d="M3966 3494 c-43 -14 -126 -58 -126 -68 0 -2 22 8 48 22 32 17 55 23
68 18 18 -7 17 -9 -11 -32 l-30 -25 50 19 c66 26 131 36 139 23 4 -5 -6 -17
-21 -25 -28 -15 -27 -15 19 -9 26 3 55 2 65 -1 16 -7 15 -9 -7 -21 -14 -8 -33
-14 -42 -15 -10 0 -18 -5 -18 -11 0 -6 8 -8 20 -4 10 3 29 1 41 -6 29 -15 9
-28 -46 -30 l-40 -2 39 -6 c62 -9 58 -31 -6 -31 -51 -1 -52 -1 -28 -15 l25
-14 -25 -10 c-23 -9 -21 -10 20 -12 138 -8 200 28 200 115 0 92 -89 157 -214
155 -39 0 -93 -7 -120 -15z"/>
<path d="M1615 3432 c-16 -11 -47 -38 -67 -60 -32 -36 -38 -49 -38 -88 0 -72
23 -108 83 -134 43 -19 63 -22 119 -17 37 3 76 10 85 16 14 8 11 9 -14 5 -32
-6 -47 8 -20 20 6 3 -1 5 -18 5 -46 -2 -55 0 -55 11 0 5 15 14 33 19 l32 9
-35 1 c-44 2 -65 14 -57 35 4 11 19 16 44 17 l38 1 -39 11 c-22 7 -41 18 -43
24 -7 21 44 26 93 9 59 -20 69 -14 14 8 -22 9 -40 20 -40 26 0 16 56 11 112
-10 51 -20 52 -20 30 -1 -51 44 30 37 118 -11 70 -37 31 -3 -55 49 -120 72
-254 95 -320 55z"/>
<path d="M3310 3339 c-47 -21 -93 -38 -102 -38 -10 -1 -18 -6 -18 -11 0 -6 10
-8 23 -5 12 2 64 11 116 19 96 15 129 32 118 60 -9 24 -43 18 -137 -25z"/>
<path d="M4408 3363 c6 -2 18 -2 25 0 6 3 1 5 -13 5 -14 0 -19 -2 -12 -5z"/>
<path d="M2495 3346 c-48 -35 39 -63 170 -54 l50 3 -80 27 c-119 39 -120 39
-140 24z"/>
<path d="M3803 3279 c94 -22 197 -93 197 -135 0 -23 -38 -17 -160 27 -203 71
-266 83 -435 83 -154 -1 -267 -13 -366 -41 -45 -12 -61 -12 -79 -3 -136 73
-512 44 -829 -64 -147 -50 -169 -54 -178 -30 -9 24 27 53 98 79 35 13 57 24
49 24 -44 2 -221 -72 -278 -115 -62 -48 -73 -116 -24 -154 47 -38 68 -32 462
125 159 64 224 82 343 95 134 15 288 -15 344 -68 l29 -27 22 27 c47 57 228 87
420 69 160 -14 301 -51 471 -121 78 -33 156 -60 171 -60 40 0 90 44 90 80 0
27 -26 68 -65 103 -52 46 -235 118 -294 116 -21 -1 -19 -3 12 -10z"/>
<path d="M4200 3186 c0 -2 7 -7 16 -10 8 -3 12 -2 9 4 -6 10 -25 14 -25 6z"/>
<path d="M2572 3123 c-5 -10 -12 -50 -14 -90 -6 -87 -39 -158 -87 -190 -19
-13 -30 -23 -24 -23 18 0 102 61 134 97 37 43 79 128 79 161 0 13 -5 32 -10
43 -14 25 -66 26 -78 2z"/>
<path d="M2730 3125 c-7 -8 -15 -55 -19 -103 -7 -96 -28 -139 -82 -167 -37
-20 -37 -27 1 -14 80 28 170 152 170 234 0 59 -39 87 -70 50z"/>
<path d="M3353 3119 c-65 -24 -52 -150 23 -221 30 -28 122 -73 131 -64 3 2
-10 11 -29 19 -18 8 -46 33 -62 55 -24 35 -28 48 -22 82 3 22 9 58 12 79 5 32
3 41 -12 49 -11 5 -28 6 -41 1z"/>
<path d="M3480 3093 c-17 -22 -20 -35 -14 -68 11 -72 61 -131 160 -193 67 -42
78 -41 27 3 -64 55 -93 112 -93 185 0 34 -5 70 -10 81 -15 27 -45 24 -70 -8z"/>
<path d="M3172 3098 c-19 -19 -15 -123 8 -167 18 -37 72 -91 90 -91 5 0 17 -3
27 -6 16 -5 16 -4 2 8 -41 34 -51 65 -50 154 0 50 -4 93 -10 101 -14 16 -51
17 -67 1z"/>
<path d="M2431 3074 c-12 -15 -21 -36 -21 -47 0 -53 -34 -139 -74 -184 -49
-56 -18 -44 51 20 74 68 120 165 102 215 -11 29 -33 28 -58 -4z"/>
<path d="M2850 3069 c-9 -15 -9 -33 0 -69 9 -38 9 -58 0 -85 -6 -19 -15 -35
-18 -35 -4 0 -18 -9 -32 -20 l-25 -20 30 11 c70 25 135 107 135 170 0 58 -66
94 -90 48z"/>
<path d="M3022 3074 c-61 -43 13 -224 92 -224 19 0 19 1 -4 13 -14 7 -31 26
-39 41 -12 25 -11 36 3 81 20 65 20 91 0 99 -22 9 -27 8 -52 -10z"/>
<path d="M3734 3039 c26 -18 86 -76 133 -131 129 -150 198 -197 340 -228 45
-11 73 -6 37 6 -49 15 -73 33 -129 93 -127 137 -220 223 -264 245 -37 19 -130
46 -158 46 -4 0 15 -14 41 -31z"/>
<path d="M2278 3028 c-14 -18 -32 -54 -42 -80 -25 -67 -65 -118 -136 -171 -76
-57 -62 -61 28 -8 76 44 159 127 191 190 41 80 7 135 -41 69z"/>
<path d="M3642 3028 c-29 -29 -5 -104 52 -167 27 -30 99 -62 151 -67 36 -4 37
-3 15 7 -54 23 -107 93 -124 164 -16 65 -61 96 -94 63z"/>
<path d="M2119 2981 c-107 -53 -156 -91 -238 -183 -78 -87 -162 -163 -198
-181 -13 -5 -23 -14 -23 -18 0 -13 169 69 221 107 27 19 91 85 144 145 53 60
114 121 136 134 21 14 39 27 39 30 0 7 3 8 -81 -34z"/>
<path d="M4031 2934 c274 -217 366 -265 503 -263 84 1 131 17 56 18 -79 1
-159 43 -261 135 -100 91 -132 107 -224 116 -38 4 -79 11 -90 15 -11 5 -4 -5
16 -21z"/>
<path d="M1890 2905 c-19 -7 -46 -14 -60 -14 -44 -2 -123 -47 -194 -111 -38
-34 -85 -72 -105 -85 -45 -30 -144 -65 -185 -65 -17 0 -37 -4 -45 -9 -24 -15
161 -12 222 4 63 16 126 44 168 72 22 15 245 225 237 222 -2 0 -19 -7 -38 -14z"/>
<path d="M4849 4960 c-22 -19 -23 -21 -6 -30 9 -6 17 -20 17 -31 0 -19 1 -19
30 3 32 23 38 46 18 66 -17 17 -32 15 -59 -8z"/>
<path d="M5011 4919 c-22 -18 -23 -20 -7 -44 19 -29 24 -30 50 -10 18 14 18
15 0 44 l-19 29 -24 -19z"/>
<path d="M4858 4803 c-14 -16 -14 -22 -1 -53 l15 -35 15 29 c14 27 11 76 -6
76 -4 0 -15 -8 -23 -17z"/>
<path d="M4998 4712 c-31 -19 -34 -29 -14 -55 13 -17 16 -17 45 -2 33 17 34
18 25 53 -7 26 -20 27 -56 4z"/>
<path d="M675 4219 c-10 -15 1 -23 20 -15 9 3 13 10 10 16 -8 13 -22 13 -30
-1z"/>
<path d="M644 4159 c-8 -14 11 -33 25 -25 6 4 11 14 11 22 0 16 -26 19 -36 3z"/>
<path d="M5370 3800 c0 -10 58 -60 70 -60 13 0 21 31 11 48 -10 17 -81 28 -81
12z"/>
<path d="M5337 3773 c-4 -3 -7 -21 -7 -40 0 -29 3 -33 26 -33 22 0 25 -2 14
-15 -7 -8 -21 -15 -31 -15 -12 0 -19 -7 -19 -20 0 -12 7 -20 17 -20 17 0 73
47 73 62 0 12 -51 88 -60 88 -4 0 -10 -3 -13 -7z"/>
<path d="M5263 3733 c-18 -7 -16 -33 2 -33 8 0 15 2 15 4 0 2 3 11 6 20 6 16
0 19 -23 9z"/>
<path d="M5198 3724 c-11 -10 3 -34 19 -34 8 0 13 7 11 17 -3 18 -20 27 -30
17z"/>
<path d="M5207 3653 c-4 -3 -7 -15 -7 -25 0 -26 24 -17 28 10 3 21 -8 29 -21
15z"/>
<path d="M5255 3651 c-3 -5 -1 -12 5 -16 12 -7 30 2 30 16 0 12 -27 12 -35 0z"/>
<path d="M5405 3433 c-34 -25 -42 -34 -25 -29 14 3 47 9 73 13 57 7 65 16 35
37 -28 20 -24 21 -83 -21z"/>
<path d="M5298 3327 c-34 -8 -37 -12 -32 -35 10 -48 13 -52 38 -52 28 0 46 25
46 64 0 32 -7 35 -52 23z"/>
<path d="M5183 2871 l-42 -49 20 -26 c35 -45 65 -29 95 50 17 45 17 47 -1 60
-10 8 -21 14 -24 14 -3 0 -25 -22 -48 -49z"/>
<path d="M5428 2734 c-28 -14 -39 -56 -19 -68 12 -8 38 24 46 57 8 31 9 31
-27 11z"/>
<path d="M5032 2668 c-5 -7 -17 -28 -27 -47 -17 -34 -10 -50 21 -51 14 0 48
86 39 100 -8 14 -20 13 -33 -2z"/>
<path d="M5089 2605 c-34 -64 -15 -77 36 -24 39 39 39 41 21 55 -28 20 -31 19
-57 -31z"/>
<path d="M5210 2590 c0 -6 -22 -22 -50 -38 -27 -15 -50 -29 -50 -32 0 -9 61
-29 73 -24 17 6 59 83 52 94 -8 13 -25 13 -25 0z"/>
<path d="M304 2870 c4 -98 52 -408 76 -492 6 -21 15 -38 21 -38 49 0 183 108
164 134 -6 7 -33 43 -61 81 -60 79 -133 221 -175 338 l-29 82 4 -105z"/>
<path d="M5633 2792 c-21 -82 -119 -244 -211 -350 -53 -61 -54 -63 -38 -87 25
-39 92 -83 137 -90 22 -4 42 -5 45 -3 19 20 61 263 73 423 8 117 6 153 -6 107z"/>
<path d="M2890 2469 c-231 -32 -467 -81 -620 -131 -141 -45 -208 -96 -257
-195 -25 -52 -28 -68 -28 -158 0 -92 3 -105 32 -165 18 -36 61 -110 97 -165
90 -138 117 -222 117 -370 0 -61 -5 -133 -11 -161 -19 -83 -50 -178 -68 -209
-17 -28 -17 -30 0 -64 47 -91 -6 -201 -96 -201 -23 0 -52 7 -64 16 -21 14 -25
13 -79 -31 -31 -25 -70 -53 -87 -62 l-30 -16 39 -19 c56 -29 240 -87 314 -99
36 -5 67 -12 71 -14 15 -9 223 -35 362 -45 285 -20 733 -8 958 26 168 25 336
57 396 75 80 25 267 94 303 113 l25 13 -25 13 c-13 7 -47 31 -76 52 -50 39
-52 39 -82 24 -39 -21 -67 -20 -117 3 -47 21 -70 50 -85 103 -8 30 -6 48 11
95 l20 58 -35 67 c-57 109 -76 173 -82 283 -5 89 -2 112 25 215 20 79 43 137
71 185 69 116 91 170 108 257 13 69 13 92 3 133 -14 56 -66 154 -107 201 -51
58 -165 112 -303 144 -144 33 -546 50 -700 29z m714 -194 c58 -17 128 -71 151
-116 22 -42 19 -92 -7 -117 -33 -30 -67 -40 -187 -58 -268 -39 -386 -99 -480
-249 -76 -119 -85 -153 -85 -300 1 -117 4 -141 32 -232 18 -56 50 -143 72
-193 47 -107 54 -184 20 -215 -17 -16 -25 -17 -59 -7 -54 17 -88 55 -131 147
-55 119 -75 215 -74 370 0 112 4 142 27 218 44 142 123 281 213 370 l27 27
-27 0 c-82 0 -185 99 -210 203 -8 32 -9 31 37 12 82 -34 183 -15 352 68 115
56 140 65 195 76 66 13 77 13 134 -4z m-863 -21 c48 -28 79 -94 79 -166 0 -69
-8 -88 -60 -143 -21 -22 -39 -47 -40 -55 -5 -38 -1 -40 58 -19 31 12 63 26 70
32 9 7 12 1 12 -27 0 -48 -11 -67 -81 -147 -32 -37 -63 -79 -69 -94 -15 -40
-13 -125 3 -125 8 0 42 29 75 64 34 35 62 62 62 59 0 -3 -16 -31 -35 -63 -53
-86 -87 -167 -87 -204 0 -18 26 -126 57 -242 79 -293 82 -359 17 -382 -90 -31
-168 105 -203 356 -7 45 -15 80 -18 77 -4 -2 -35 -59 -69 -128 -71 -141 -118
-197 -166 -197 -18 0 -41 7 -53 15 -28 20 -46 77 -38 118 9 42 62 138 146 262
52 79 145 228 197 320 4 6 -12 -6 -35 -25 -47 -40 -157 -80 -221 -80 -60 0
-93 32 -99 96 -3 31 0 63 9 85 22 51 107 148 182 208 l66 53 -43 34 c-44 36
-62 56 -128 137 -43 54 -50 73 -19 57 30 -16 54 -5 127 57 90 77 133 95 210
90 36 -3 76 -13 94 -23z m839 -399 c36 -18 70 -61 70 -88 0 -29 -43 -98 -77
-123 -15 -11 -52 -29 -80 -39 -29 -11 -53 -22 -53 -27 0 -4 12 -3 26 2 38 15
147 12 185 -4 65 -27 99 -90 99 -183 0 -62 -26 -373 -36 -436 -7 -47 -54 -103
-103 -123 -94 -39 -240 -26 -351 31 l-45 24 51 1 c72 0 144 24 189 63 l39 34
-39 7 c-44 9 -119 60 -160 108 l-26 31 -22 -20 c-28 -26 -107 -75 -107 -67 0
3 15 27 34 53 61 83 60 88 -38 195 -47 52 -86 97 -86 100 0 4 26 -10 58 -30
31 -21 80 -50 109 -66 60 -33 61 -33 86 64 15 57 50 118 68 118 5 0 9 4 9 9 0
13 -163 -1 -280 -25 -47 -10 -7 14 118 70 139 63 248 125 281 160 18 19 20 27
11 50 -13 35 -68 59 -118 51 -58 -10 -164 -45 -199 -65 -18 -11 -33 -16 -33
-12 0 14 176 110 249 137 49 18 136 18 171 0z"/>
<path d="M2504 1849 c-74 -51 -112 -87 -129 -119 -31 -61 15 -65 123 -11 88
44 101 56 112 105 9 39 4 51 -26 60 -14 4 -37 -6 -80 -35z"/>
<path d="M3467 1440 c8 -29 -21 -102 -66 -169 l-41 -60 37 -27 c21 -15 54 -40
75 -55 44 -34 44 -34 54 93 7 103 -6 190 -33 220 -21 24 -32 23 -26 -2z"/>
<path d="M580 2360 c-25 -22 -71 -54 -103 -71 -50 -26 -57 -34 -51 -52 9 -32
11 -32 52 -18 57 21 148 78 177 113 l27 32 -22 18 c-12 10 -25 18 -29 18 -3
-1 -26 -19 -51 -40z"/>
<path d="M3960 2325 c0 -4 11 -20 24 -36 33 -38 66 -128 78 -213 16 -100 -6
-181 -102 -376 -59 -120 -81 -177 -90 -232 -17 -100 -8 -256 21 -339 54 -157
212 -341 400 -466 36 -23 37 -24 73 -7 l36 18 -43 25 c-154 90 -317 257 -378
386 -62 128 -76 318 -33 425 48 120 143 234 232 279 115 59 299 67 403 17 68
-32 161 -126 191 -193 31 -68 31 -181 -1 -241 -49 -95 -120 -151 -226 -179
l-50 -13 65 5 c36 3 80 8 98 12 27 4 32 2 32 -15 0 -27 10 -52 21 -52 5 0 8 3
8 8 -5 28 6 56 41 105 l40 55 38 -39 c45 -45 64 -41 26 5 -24 28 -26 36 -21
99 5 73 11 87 29 69 14 -14 74 -16 82 -3 3 5 -8 11 -24 15 -22 4 -38 19 -60
53 -37 58 -37 66 -2 58 21 -4 35 0 53 15 l24 20 -28 -6 c-23 -5 -35 0 -64 27
-19 19 -44 51 -55 72 -48 94 -165 186 -268 213 -121 31 -327 3 -409 -55 -36
-26 -36 -26 -15 25 13 31 16 64 12 165 -4 116 -7 130 -38 197 -18 40 -38 76
-44 81 -15 12 -76 24 -76 16z"/>
<path d="M5266 2315 c-20 -15 -20 -15 0 -43 38 -51 137 -122 192 -138 62 -18
78 -15 84 18 4 22 -1 26 -60 43 -53 15 -76 29 -127 77 -34 32 -64 58 -66 58
-2 0 -13 -7 -23 -15z"/>
<path d="M704 2277 c-44 -45 -163 -127 -212 -147 -18 -7 -31 -18 -29 -24 2 -6
21 -65 41 -131 l38 -120 56 0 57 0 -3 36 c-3 29 2 43 26 70 l30 34 139 6 c142
7 169 12 241 47 23 11 42 16 42 12 0 -16 -75 -66 -140 -94 -145 -61 -242 -172
-269 -306 -23 -112 -23 -147 -2 -195 54 -123 299 -402 501 -571 109 -92 277
-204 304 -204 51 0 190 66 283 134 102 75 197 235 211 357 14 124 -18 267 -80
353 -93 130 -178 184 -301 193 -139 11 -245 -42 -304 -152 -64 -118 -35 -267
65 -342 45 -34 66 -41 201 -66 58 -11 91 -23 108 -39 29 -27 53 -70 53 -94 0
-16 -2 -15 -22 3 -53 48 -122 50 -318 11 -47 -9 -61 -9 -92 6 -21 10 -41 29
-48 46 -11 28 -14 29 -33 15 -33 -23 -56 -18 -93 19 -26 26 -34 43 -34 69 0
30 -4 35 -30 40 -57 12 -83 105 -46 162 14 21 13 24 -15 44 -16 12 -31 32 -35
46 -14 56 40 135 92 135 21 0 23 3 14 26 -8 21 -6 33 10 59 20 32 77 68 92 59
5 -3 25 8 46 24 125 96 235 135 388 136 l102 1 7 59 c3 33 17 94 30 135 13 41
23 77 21 78 -2 2 -50 -3 -107 -11 -175 -25 -423 -37 -524 -26 -102 12 -163 31
-316 99 l-106 48 -39 -40z"/>
<path d="M4150 2266 c0 -4 6 -17 14 -29 24 -36 46 -140 46 -212 0 -60 2 -66
18 -60 74 31 238 30 327 -1 99 -34 221 -137 287 -241 33 -52 44 -63 67 -63 57
0 97 -78 63 -120 -19 -24 -19 -24 3 -42 60 -47 29 -158 -44 -158 -18 0 -18 -2
-5 -28 38 -77 -51 -172 -128 -138 -15 7 -18 3 -18 -16 0 -60 -104 -94 -146
-47 l-18 20 -8 -20 c-14 -40 -95 -31 -195 21 -67 34 -85 39 -126 35 -27 -2
-56 -12 -69 -23 -21 -19 -21 -19 -10 1 35 68 101 94 245 99 135 4 177 21 236
96 108 136 59 331 -105 415 -56 28 -66 30 -175 30 -114 0 -117 0 -191 -38 -42
-21 -94 -57 -117 -80 -98 -97 -146 -289 -107 -432 29 -108 111 -238 218 -342
66 -65 228 -173 259 -173 48 0 244 145 393 289 121 119 285 318 347 422 38 63
41 74 37 122 -11 116 -76 230 -178 315 -126 104 -183 156 -201 186 -30 50 -22
59 16 17 43 -48 137 -91 221 -101 35 -4 78 -17 96 -28 38 -24 72 -76 64 -98
-4 -12 -1 -14 14 -9 31 10 76 -3 102 -30 l24 -24 29 57 c34 70 75 171 75 188
0 7 -18 15 -39 19 -46 8 -142 52 -188 87 -31 23 -85 85 -103 117 -6 12 -20 10
-81 -12 -165 -58 -191 -62 -399 -61 -109 0 -213 5 -235 12 -22 6 -65 18 -95
26 -30 9 -84 22 -120 30 -36 8 -73 17 -82 21 -10 4 -18 4 -18 1z"/>
<path d="M1925 2241 c-36 -7 -60 -52 -81 -150 -21 -100 -17 -188 13 -285 5
-18 3 -18 -32 3 -21 12 -72 31 -114 43 -143 39 -272 10 -407 -94 -60 -45 -127
-73 -147 -61 -6 3 -7 1 -3 -5 4 -7 23 -12 42 -12 39 0 39 -1 20 -38 -30 -57
-121 -123 -147 -106 -5 3 -9 0 -9 -7 0 -8 18 -10 60 -7 l60 4 -6 -35 c-12 -64
-36 -111 -72 -141 -20 -17 -31 -30 -24 -30 18 0 89 37 98 52 21 33 34 -135 14
-172 -18 -33 14 -13 34 22 l19 31 34 -37 c19 -20 57 -48 85 -62 52 -26 148
-47 148 -33 0 5 -14 9 -30 9 -52 0 -126 45 -169 103 -86 114 -109 252 -59 355
35 70 101 147 152 177 51 30 160 44 255 33 222 -25 434 -293 433 -548 -1 -240
-119 -419 -373 -567 -79 -45 -95 -63 -61 -63 10 0 23 -5 29 -11 16 -16 76 16
191 103 145 110 195 177 237 319 14 46 30 122 35 169 16 147 -14 240 -148 453
-100 158 -126 265 -100 409 9 47 27 109 41 137 13 28 21 50 18 50 -3 -1 -19
-4 -36 -8z"/>
<path d="M745 1854 c-40 -41 -85 -97 -99 -125 -25 -45 -26 -53 -15 -86 l12
-37 21 60 c29 79 82 170 129 222 69 73 27 45 -48 -34z"/>
<path d="M5155 1840 c5 -8 23 -35 40 -60 32 -46 95 -178 95 -198 0 -29 39 10
40 40 0 17 -122 180 -160 213 -14 12 -20 14 -15 5z"/>
</g>
</svg>
