<?xml version="1.0" standalone="no"?>
<!DOCTYPE svg PUBLIC "-//W3C//DTD SVG 20010904//EN"
 "http://www.w3.org/TR/2001/REC-SVG-20010904/DTD/svg10.dtd">
<svg version="1.0" xmlns="http://www.w3.org/2000/svg"
 width="860.000000pt" height="860.000000pt" viewBox="0 0 860.000000 860.000000"
 preserveAspectRatio="xMidYMid meet">

<g transform="translate(0.000000,860.000000) scale(0.100000,-0.100000)"
fill="#000000" stroke="none">
<path d="M4235 6886 c-104 -20 -149 -34 -265 -79 -83 -32 -115 -50 -155 -88
-27 -26 -62 -57 -76 -68 -14 -11 -45 -44 -68 -74 l-41 -54 -107 33 c-158 50
-291 46 -427 -14 -66 -30 -159 -96 -193 -138 l-29 -36 -53 11 c-28 6 -70 11
-93 11 -95 0 -277 -76 -362 -151 -92 -81 -197 -252 -248 -405 -20 -61 -23 -88
-23 -224 1 -172 14 -253 52 -319 l25 -43 -31 -67 c-49 -108 -64 -189 -57 -316
3 -60 12 -137 21 -170 26 -106 20 -108 -71 -28 -89 79 -142 149 -150 201 -8
49 18 171 53 252 33 75 61 166 69 221 5 37 0 59 -26 123 -28 68 -32 86 -27
138 4 41 13 71 28 91 20 28 21 31 5 43 -12 8 -27 10 -49 3 -46 -13 -141 -63
-128 -67 6 -2 32 8 57 22 63 35 71 33 36 -11 -107 -137 -211 -422 -212 -580 0
-71 18 -27 34 85 11 70 29 147 47 191 44 110 108 236 140 273 l27 33 -5 -80
c-5 -73 -3 -86 20 -131 50 -99 48 -114 -33 -344 -48 -137 -51 -152 -57 -270
-8 -179 4 -241 73 -380 49 -97 70 -127 131 -187 40 -39 73 -76 73 -81 0 -43
-107 -20 -220 48 -70 41 -128 97 -263 253 -90 103 -135 183 -184 322 -26 74
-28 92 -28 230 0 152 9 204 51 288 8 16 14 35 14 43 0 8 4 14 9 14 5 0 13 10
17 23 3 12 11 28 17 36 6 7 12 20 13 30 2 9 15 25 30 36 16 11 39 30 51 43 13
12 29 22 36 22 20 0 40 17 33 28 -7 12 -44 -4 -74 -31 -63 -57 -106 -105 -114
-129 -6 -15 -14 -28 -20 -28 -5 0 -6 -5 -2 -12 4 -6 -1 -17 -12 -25 -10 -8
-18 -16 -17 -18 1 -3 0 -10 -2 -17 -46 -125 -55 -177 -55 -304 0 -111 4 -145
25 -218 44 -151 97 -244 221 -385 61 -69 132 -145 157 -169 50 -45 153 -100
228 -121 l45 -13 -4 -86 c-2 -48 -6 -89 -8 -91 -1 -2 -16 6 -32 18 -17 12 -42
21 -56 21 -25 0 -26 -2 -23 -52 2 -44 -3 -62 -28 -102 -59 -95 -60 -99 -60
-176 0 -66 4 -84 37 -151 21 -41 64 -106 96 -145 32 -38 76 -95 97 -128 39
-58 87 -101 157 -137 62 -32 269 -97 348 -109 94 -15 192 -10 198 9 4 11 -6
12 -49 7 -64 -8 -208 13 -289 43 -235 85 -281 113 -347 210 -24 35 -69 93
-100 130 -79 92 -128 198 -128 276 0 61 4 70 94 215 24 39 75 -96 92 -244 10
-96 40 -199 60 -212 19 -11 19 2 -1 54 -11 28 -26 104 -35 169 -13 102 -21
130 -60 212 -25 52 -44 96 -41 98 12 13 61 -16 113 -65 88 -85 139 -166 168
-269 13 -48 36 -126 50 -172 14 -47 25 -94 25 -105 0 -35 76 -160 121 -200 55
-51 131 -84 232 -103 45 -9 94 -22 109 -29 14 -8 45 -14 67 -14 42 0 51 -9 27
-29 -24 -20 -67 -130 -76 -193 -5 -33 -11 -63 -14 -66 -4 -3 -19 6 -34 20 -45
41 -151 109 -229 145 -92 44 -206 56 -278 28 -55 -20 -56 -41 -4 -59 45 -16
147 -93 181 -138 13 -18 42 -64 63 -103 72 -129 227 -265 339 -296 29 -8 36
-16 54 -67 11 -31 25 -83 32 -114 6 -33 17 -58 24 -58 17 0 143 173 194 266
23 44 58 97 77 119 l34 40 1 -42 c0 -61 35 -145 90 -216 26 -35 69 -100 96
-146 43 -75 49 -93 56 -165 5 -57 3 -102 -8 -151 -8 -38 -14 -78 -14 -87 0
-35 29 -17 73 45 69 96 123 141 236 199 58 29 106 59 108 65 2 6 -12 29 -31
49 -20 21 -36 41 -36 45 0 13 27 17 69 12 41 -6 42 -5 59 36 9 22 20 41 23 41
3 0 23 -16 44 -35 45 -43 78 -61 125 -68 19 -3 59 -10 88 -16 76 -15 160 3
227 48 38 27 51 26 116 -3 72 -33 123 -41 254 -41 153 0 197 23 276 148 34 52
40 54 84 28 30 -17 30 -19 36 -119 3 -56 8 -105 12 -109 4 -4 28 16 52 44 46
53 102 83 203 109 103 27 220 112 320 232 l44 52 61 0 c34 0 109 9 167 21 162
32 270 13 351 -62 23 -21 48 -39 56 -39 15 0 17 21 4 35 -5 6 -20 30 -34 55
-13 25 -41 74 -62 110 -37 65 -95 203 -95 227 0 9 19 13 64 13 153 0 472 147
593 273 56 58 133 193 133 233 0 7 9 36 20 64 39 99 37 311 -4 403 -7 18 -17
39 -20 47 -29 70 -160 233 -184 228 -11 -2 -16 -11 -14 -23 11 -62 3 -107 -32
-182 -21 -43 -46 -87 -56 -98 -35 -37 -50 -91 -50 -175 0 -45 4 -79 9 -76 4 3
11 44 14 92 4 78 8 90 41 139 21 29 50 84 66 121 16 38 33 70 38 72 27 9 46
-293 25 -392 -11 -49 -8 -80 7 -71 4 2 11 19 15 37 4 18 9 40 12 48 2 8 4 68
4 132 0 116 -14 225 -32 261 -6 10 -9 26 -7 35 2 11 21 -7 56 -57 29 -41 52
-79 52 -84 0 -6 6 -18 13 -26 7 -9 19 -34 25 -56 45 -160 23 -353 -60 -521
-75 -155 -257 -284 -513 -365 -60 -19 -195 -26 -195 -11 0 5 17 16 38 26 137
65 312 197 328 249 4 12 15 34 25 49 11 14 19 32 19 39 0 7 9 22 20 34 16 17
20 37 22 125 2 78 0 104 -10 108 -9 3 -12 -4 -9 -25 2 -15 0 -34 -6 -41 -7 -9
-7 -16 0 -23 14 -14 -5 -101 -23 -112 -8 -4 -14 -15 -14 -23 0 -17 -73 -53
-107 -54 -12 0 -24 -4 -27 -9 -3 -4 -46 -14 -96 -21 -125 -18 -250 -9 -328 24
-34 14 -68 26 -77 26 -25 0 -17 25 23 68 26 28 47 42 65 42 14 0 51 15 84 33
32 18 77 38 100 45 96 29 230 144 328 282 71 101 86 139 92 245 10 162 -44
369 -121 461 -47 56 -92 79 -190 97 -42 8 -79 17 -82 19 -2 3 9 29 25 59 16
30 44 97 62 149 32 91 34 100 33 235 -1 120 -5 153 -28 228 -62 209 -129 266
-322 275 l-102 5 -5 38 c-8 64 -47 130 -116 201 -93 94 -174 186 -190 215 -18
35 5 173 29 173 13 0 150 -101 182 -133 15 -16 42 -52 60 -79 21 -32 34 -45
36 -35 6 30 -69 128 -133 174 -16 12 -27 25 -23 29 12 11 86 -17 130 -48 46
-34 113 -134 129 -192 14 -53 6 -208 -14 -263 -18 -49 -5 -68 17 -25 23 44 39
157 33 228 -6 77 -43 156 -104 225 -43 47 -110 81 -210 108 -42 11 -83 50 -83
78 0 8 -6 13 -12 11 -21 -7 -60 -118 -66 -185 -4 -56 -2 -67 22 -103 14 -22
26 -44 26 -49 0 -15 -121 -25 -130 -11 -4 6 -10 45 -13 85 -8 85 -35 166 -77
224 -17 22 -30 45 -30 51 0 21 -141 158 -192 186 -49 27 -61 29 -154 29 -94
-1 -105 -3 -166 -34 -112 -56 -227 -192 -268 -316 -24 -73 -50 -218 -50 -284
0 -40 -2 -43 -22 -36 -101 32 -297 44 -305 18 -3 -8 17 -10 74 -6 55 3 94 0
133 -12 30 -9 66 -19 80 -22 31 -8 47 -28 55 -72 5 -27 2 -39 -18 -60 -31 -33
-97 -130 -97 -142 0 -6 7 -26 15 -45 25 -61 29 -127 10 -165 -20 -39 -84 -109
-100 -109 -20 0 -72 114 -79 175 -8 71 -26 135 -38 135 -11 0 -10 -23 2 -56
17 -43 5 -39 -46 16 -58 62 -89 85 -129 94 l-30 7 25 -21 c14 -11 30 -20 36
-20 16 0 82 -66 99 -100 25 -48 20 -57 -34 -62 -52 -5 -106 -32 -96 -48 3 -5
21 -2 40 6 35 14 95 19 95 7 0 -14 -35 -113 -40 -113 -23 0 -137 72 -147 92
-16 31 -41 53 -50 44 -4 -4 -2 -10 4 -14 15 -9 34 -58 26 -66 -19 -19 -122 23
-165 66 -10 10 -21 18 -25 18 -5 0 -23 14 -42 30 -18 17 -40 30 -47 30 -8 0
-14 4 -14 8 0 12 -74 52 -95 52 -9 0 6 -16 35 -35 29 -19 56 -35 61 -35 5 0
12 -6 15 -14 9 -23 165 -125 203 -132 l34 -7 -29 -16 c-32 -16 -169 -25 -194
-11 -8 4 -28 11 -45 14 -16 3 -63 17 -104 32 -66 23 -87 25 -181 22 -98 -3
-112 -6 -170 -35 l-62 -33 8 33 c5 17 9 79 9 137 l0 104 59 33 c32 18 63 33
70 33 6 0 35 9 64 20 40 16 76 20 160 20 112 0 132 -6 240 -69 40 -23 129
-105 158 -146 34 -48 39 -21 6 28 -33 48 -175 156 -245 187 -24 11 -76 23
-115 26 -39 4 -69 10 -67 14 2 4 31 15 64 24 67 19 97 44 40 33 -125 -24 -200
-46 -224 -65 -40 -32 -50 -15 -31 50 19 67 45 92 121 116 74 23 110 15 180
-37 28 -21 86 -57 130 -81 71 -39 87 -44 139 -43 33 1 62 6 66 13 13 21 83 31
108 14 12 -8 22 -19 22 -24 0 -6 5 -10 11 -10 7 0 9 9 6 21 -5 18 -2 20 19 15
21 -6 24 -3 24 19 0 18 -7 28 -25 35 -36 14 -77 64 -129 155 -25 45 -58 92
-73 107 -60 56 -213 116 -319 125 -41 3 -77 9 -79 13 -13 21 247 188 307 198
28 5 43 13 43 22 0 12 -18 15 -93 16 -51 1 -96 4 -99 7 -12 12 18 35 92 70 95
46 135 57 234 61 l80 3 11 -71 c23 -150 31 -165 120 -226 74 -50 111 -115 103
-182 -5 -40 -2 -48 16 -57 23 -13 23 -13 27 49 3 56 32 156 68 239 74 168 89
227 84 331 -3 78 -9 107 -33 158 -35 78 -104 142 -183 173 -71 27 -192 33
-287 15z m254 -35 c68 -21 138 -73 171 -126 51 -83 65 -237 31 -336 -30 -86
-83 -209 -91 -209 -4 0 -10 49 -13 108 -9 156 -34 257 -80 317 -29 38 -27 8 3
-51 17 -32 35 -86 40 -119 12 -76 17 -322 7 -332 -5 -4 -23 9 -40 29 -18 20
-51 48 -74 62 -58 35 -71 60 -87 157 -19 118 -33 163 -72 241 -52 103 -133
173 -222 193 -51 11 -28 24 95 56 133 35 242 38 332 10z m-1060 -292 c104 -24
198 -69 265 -128 36 -32 82 -69 101 -82 52 -36 45 -48 -22 -43 -32 3 -76 9
-98 14 -22 5 -74 11 -115 14 -61 4 -67 3 -30 -4 25 -5 68 -14 95 -20 28 -5
108 -17 178 -24 71 -8 131 -17 133 -19 5 -4 -49 -43 -203 -149 -52 -36 -101
-53 -196 -69 -69 -12 -81 -11 -158 10 -46 13 -115 34 -154 47 -43 15 -93 24
-127 24 -32 0 -58 4 -58 8 0 25 67 96 133 142 70 48 95 75 82 88 -3 3 -30 -6
-59 -21 -63 -32 -138 -36 -224 -11 -32 9 -59 18 -61 20 -12 11 27 64 71 97
133 98 305 139 447 106z m1901 -174 c35 -18 150 -122 150 -135 0 -4 -25 -10
-56 -13 -66 -7 -94 -23 -134 -79 -36 -49 -47 -86 -59 -204 -13 -121 -46 -240
-76 -280 -37 -49 -76 -76 -206 -142 -143 -73 -231 -94 -186 -44 21 23 69 128
96 211 22 67 29 187 11 176 -5 -3 -10 -30 -11 -58 0 -57 -47 -209 -66 -214
-12 -4 -46 78 -57 139 -4 21 2 92 14 170 17 109 27 148 60 216 61 128 186 248
283 273 55 14 198 5 237 -16z m-2459 -50 c52 -14 122 -31 157 -37 34 -7 62
-15 62 -19 0 -15 -121 -54 -246 -79 -76 -15 -126 -33 -214 -77 -106 -53 -190
-112 -190 -134 0 -17 23 -9 55 20 58 50 216 129 306 152 46 11 119 30 162 41
42 12 80 18 84 15 10 -10 -73 -125 -141 -195 -57 -59 -149 -131 -187 -145 -44
-16 -268 -188 -352 -270 -71 -70 -127 -180 -127 -252 0 -54 -23 -92 -47 -77
-60 37 -94 339 -57 505 31 136 129 313 227 411 87 86 259 164 368 165 26 1 89
-10 140 -24z m417 -282 c19 -16 20 -21 8 -54 -7 -20 -38 -62 -69 -93 -43 -43
-70 -84 -114 -172 -51 -105 -57 -124 -61 -195 -2 -43 -8 -76 -13 -74 -14 9
-59 116 -65 155 -15 93 54 271 139 359 87 90 133 109 175 74z m592 -17 c69
-16 207 -80 238 -109 25 -23 92 -131 92 -148 0 -6 -26 12 -57 39 -67 57 -187
117 -211 106 -13 -5 -10 -8 14 -14 53 -12 135 -63 208 -129 39 -36 75 -72 80
-80 5 -9 14 -19 20 -23 7 -5 3 -8 -9 -8 -11 0 -29 -7 -39 -15 -11 -8 -30 -15
-42 -15 -12 0 -24 -4 -26 -10 -1 -5 -19 -10 -38 -11 -42 -3 -173 64 -255 130
-54 44 -118 77 -205 107 -107 36 -335 16 -428 -37 -38 -22 -42 -23 -42 -9 0
24 94 109 152 139 35 17 101 39 148 48 47 9 114 24 150 34 78 21 175 23 250 5z
m-471 -12 c7 -7 -11 -20 -47 -34 -39 -15 -47 -10 -38 26 6 24 10 26 44 19 20
-4 39 -9 41 -11z m1932 -175 c38 -27 37 -45 -6 -59 -19 -6 -56 -31 -82 -55
l-49 -43 23 87 c12 47 22 87 22 89 3 11 69 -2 92 -19z m550 -75 l34 -35 0 -97
c-1 -101 -12 -138 -53 -175 -19 -17 -21 -17 -55 15 -19 19 -58 45 -86 58 -48
22 -63 42 -42 54 5 4 37 53 71 111 41 70 67 105 78 105 10 0 34 -16 53 -36z
m-3229 -81 c-6 -181 36 -339 134 -504 l28 -47 -34 -71 c-38 -79 -52 -86 -93
-43 -25 26 -27 35 -27 108 -1 79 -14 150 -44 234 -9 25 -16 55 -16 66 0 12 -6
34 -14 48 l-14 27 -22 -30 c-34 -48 -44 -40 -36 32 8 82 29 146 68 215 60 107
74 99 70 -35z m2480 -95 c-7 -7 -12 -8 -12 -2 0 14 12 26 19 19 2 -3 -1 -11
-7 -17z m-384 -12 c7 -34 -9 -85 -35 -116 -14 -17 -23 -34 -19 -37 3 -4 40 1
81 11 43 10 87 15 105 11 22 -5 30 -3 30 8 0 20 25 39 104 80 68 35 70 36 98
19 16 -9 44 -33 63 -52 l35 -36 -102 -13 c-57 -8 -112 -18 -124 -23 -11 -5
-43 -39 -70 -74 -66 -88 -102 -114 -156 -114 -39 0 -79 14 -68 23 3 2 21 13
41 25 41 25 144 130 135 139 -3 3 -25 -12 -48 -33 -63 -58 -113 -94 -130 -94
-10 0 -22 24 -36 74 -12 41 -22 81 -22 89 0 22 89 139 103 134 7 -2 14 -12 15
-21z m932 -58 c19 -6 50 -21 69 -34 75 -51 178 -217 200 -322 11 -54 15 -152
6 -152 -3 0 -41 31 -85 69 -98 85 -137 97 -282 87 l-99 -6 -89 60 c-50 34 -96
70 -103 80 -6 11 -19 20 -28 20 -22 0 -69 38 -69 55 0 8 10 21 22 29 26 19
157 22 226 6 63 -15 280 -108 317 -136 37 -28 45 -30 45 -10 0 22 -84 69 -215
122 -106 42 -131 48 -212 52 -52 2 -90 8 -87 13 3 5 36 23 72 40 100 47 217
57 312 27z m452 -95 c39 -38 107 -113 151 -168 74 -93 97 -117 97 -100 0 18
-150 203 -214 264 -20 19 -36 39 -36 43 0 14 92 9 149 -9 87 -27 144 -91 175
-196 41 -134 46 -166 42 -292 -2 -104 -7 -132 -35 -215 -18 -52 -36 -98 -40
-103 -4 -4 -7 41 -7 100 1 99 -1 113 -28 166 -19 40 -42 68 -70 87 -229 159
-276 220 -292 380 -6 57 7 110 27 110 6 0 43 -30 81 -67z m-2809 3 c3 -8 8
-45 12 -82 11 -122 -34 -214 -188 -383 -121 -133 -170 -227 -182 -348 -6 -58
-3 -80 21 -151 15 -46 42 -108 60 -138 27 -45 30 -54 15 -54 -19 0 -101 57
-101 70 0 4 -41 50 -91 101 -132 135 -142 152 -147 257 -2 48 1 113 7 144 14
76 64 202 103 258 60 88 288 270 391 313 67 28 44 -6 -60 -90 -137 -111 -238
-214 -253 -257 -20 -60 -4 -65 22 -6 26 56 74 107 183 194 77 62 185 165 185
177 0 14 17 11 23 -5z m-753 -27 c0 -30 -26 -65 -117 -161 -77 -82 -101 -120
-91 -150 3 -7 15 7 27 32 13 25 54 77 92 115 37 39 75 87 84 108 8 20 19 37
23 37 4 0 17 -33 30 -73 47 -151 20 -272 -97 -431 -56 -75 -119 -218 -127
-288 -8 -65 5 -130 47 -238 32 -84 94 -163 163 -211 43 -29 45 -39 7 -39 -51
0 -97 27 -124 72 -14 24 -52 79 -86 122 -33 44 -68 101 -77 128 -19 58 -40 59
-36 2 2 -29 -3 -47 -17 -65 -16 -19 -20 -21 -21 -7 0 9 -11 33 -25 53 -36 54
-101 229 -116 315 -7 41 -13 122 -13 180 1 88 5 118 28 185 16 44 37 95 48
113 26 43 90 86 198 133 48 20 110 51 136 68 51 32 64 32 64 0z m2578 10 c-8
-13 -41 -31 -78 -44 -36 -12 -76 -27 -89 -34 -34 -19 -49 0 -25 32 34 45 79
62 173 66 32 1 33 0 19 -20z m51 -79 c38 -32 35 -42 -19 -70 -46 -24 -50 -24
-50 -6 0 9 -21 16 -62 22 -85 12 -84 32 2 61 83 28 88 28 129 -7z m-223 -64
c22 -7 63 -17 92 -21 28 -4 52 -10 52 -14 0 -18 -180 -131 -208 -131 -10 0
-53 -18 -97 -40 -44 -22 -83 -40 -87 -40 -23 0 13 107 51 156 33 42 115 104
137 104 12 0 39 -6 60 -14z m419 -75 c141 -98 158 -125 163 -262 5 -108 -12
-188 -54 -251 -36 -57 -48 -49 -61 38 -12 87 -27 112 -99 167 -74 57 -149 89
-221 95 -51 4 -63 8 -61 21 2 12 -6 17 -32 19 -47 4 -92 22 -87 36 5 17 109
36 233 43 121 6 166 -2 221 -43 37 -28 43 -29 43 -10 0 8 -15 26 -32 39 -57
42 -100 50 -240 44 -70 -3 -128 -2 -128 1 0 14 205 142 225 141 11 0 70 -35
130 -78z m659 12 c17 -32 76 -96 123 -133 44 -35 56 -71 42 -123 -16 -61 -136
-237 -161 -237 -5 0 -21 9 -35 20 -14 11 -43 25 -64 30 -44 12 -47 20 -19 58
28 38 44 128 45 252 0 86 3 110 19 133 10 15 22 27 27 27 5 0 15 -12 23 -27z
m-2374 7 c73 -17 153 -52 138 -61 -7 -4 -31 -6 -53 -3 -52 7 -181 -19 -235
-46 -109 -56 -173 -172 -205 -372 -3 -21 -9 -38 -13 -38 -4 0 -18 30 -30 68
-48 142 -48 242 0 317 31 48 48 63 114 98 86 45 187 58 284 37z m1077 -4 c3
-2 -5 -22 -17 -44 -15 -26 -30 -40 -44 -41 -11 0 -45 -4 -73 -7 -29 -3 -53 -3
-53 1 0 5 17 30 38 57 l37 50 54 -5 c29 -3 55 -8 58 -11z m-477 -41 c39 -20
38 -38 -4 -70 -19 -14 -53 -50 -76 -80 -24 -31 -54 -58 -72 -64 -38 -14 -158
-14 -158 -2 0 6 26 31 58 57 31 25 58 50 60 54 2 5 -30 18 -70 31 -40 12 -77
25 -81 29 -4 4 25 10 65 13 40 4 100 15 133 26 73 24 107 26 145 6z m-369 -62
c38 -9 69 -20 69 -23 0 -4 -26 -11 -57 -14 -104 -12 -223 -61 -223 -92 0 -19
4 -18 48 9 51 33 96 46 188 56 84 10 101 7 84 -14 -21 -25 -204 -123 -310
-166 -211 -85 -264 -144 -277 -306 -6 -77 -7 -82 -25 -72 -11 6 -30 34 -42 62
-21 48 -22 60 -14 147 20 209 70 315 180 383 75 46 254 61 379 30z m419 -13
c0 -5 -5 -10 -11 -10 -5 0 -7 5 -4 10 3 6 8 10 11 10 2 0 4 -4 4 -10z m570
-45 c18 -22 3 -35 -41 -35 -46 0 -50 13 -11 34 34 19 37 19 52 1z m39 -106
c18 -52 15 -59 -27 -59 -36 0 -82 22 -82 40 0 12 62 50 82 50 9 0 21 -13 27
-31z m282 -11 c82 -37 157 -96 179 -139 25 -47 35 -135 21 -172 l-11 -28 -96
86 c-53 47 -99 83 -103 81 -3 -3 -20 -36 -36 -75 -33 -79 -52 -88 -88 -40 -26
36 -118 293 -106 298 15 5 88 -49 116 -86 14 -18 29 -33 34 -33 21 0 5 25 -46
75 -30 30 -55 57 -55 61 0 16 140 -4 191 -28z m-947 -9 c25 -19 26 -23 12 -37
-13 -13 -18 -13 -48 0 -18 9 -48 19 -65 23 -18 4 -33 10 -33 14 0 30 97 29
134 0z m-189 -15 c55 -14 104 -29 109 -34 9 -9 5 -22 -42 -135 -25 -61 -36
-76 -92 -118 -35 -26 -64 -46 -66 -45 -5 5 14 213 21 230 11 29 -19 32 -67 7
-23 -12 -90 -35 -148 -51 -182 -51 -283 -127 -311 -235 -18 -70 -33 -52 -26
32 7 94 36 157 89 195 22 16 85 48 141 72 56 24 129 57 162 75 74 39 104 40
230 7z m857 -54 c10 0 24 -10 32 -22 12 -19 76 -183 76 -195 0 -12 -31 2 -60
27 -47 39 -60 38 -60 -6 0 -36 -1 -36 -32 -30 -18 3 -36 10 -41 15 -5 5 -13
42 -17 82 -5 41 -12 93 -15 115 l-7 42 53 -14 c29 -8 61 -14 71 -14z m-592 10
c0 -24 -55 -170 -83 -223 -36 -64 -51 -68 -79 -21 -17 29 -17 36 -3 97 22 93
23 96 74 128 46 28 91 38 91 19z m1441 -140 c91 -100 101 -116 145 -225 37
-93 49 -113 60 -102 7 7 -25 92 -69 182 -16 33 -52 86 -79 118 -28 32 -48 60
-45 63 3 3 22 1 43 -4 22 -6 60 -13 86 -17 60 -8 125 -54 144 -103 8 -20 20
-46 27 -57 7 -12 12 -60 13 -115 0 -80 5 -105 28 -160 39 -90 33 -139 -24
-224 -43 -63 -74 -91 -89 -82 -5 3 -11 19 -14 36 -4 16 -12 30 -18 30 -6 0
-50 -34 -99 -74 l-88 -75 -1 126 c-2 144 -16 222 -59 308 -53 107 -82 184 -82
217 0 50 32 238 41 238 4 0 40 -36 80 -80z m-1893 17 c-15 -12 -45 -34 -67
-49 -46 -31 -101 -102 -101 -130 0 -23 19 -24 27 0 13 37 56 83 133 141 45 34
84 61 87 61 3 0 3 -35 -1 -77 -4 -43 -8 -92 -9 -110 -1 -18 -13 -43 -28 -60
-50 -53 -118 -175 -130 -232 -16 -77 -5 -211 21 -265 11 -23 20 -46 20 -51 0
-14 -113 5 -157 26 -71 34 -116 102 -170 256 -31 87 -36 186 -13 267 19 67 78
129 163 171 69 33 190 72 232 74 18 0 17 -2 -7 -22z m-1364 -71 c56 -58 173
-136 205 -136 14 0 164 -151 182 -182 17 -31 -24 -21 -118 28 -213 111 -297
170 -348 245 -26 36 -26 37 -9 73 10 20 20 36 22 36 2 0 32 -29 66 -64z m2700
-23 c6 -40 76 -185 137 -281 15 -24 33 -66 40 -93 7 -27 17 -49 22 -49 17 0
-2 92 -29 139 -111 194 -145 260 -151 293 -3 22 -1 38 4 38 20 0 201 -186 222
-229 43 -84 61 -159 61 -256 0 -114 -21 -184 -80 -260 -61 -79 -190 -173 -190
-137 0 4 10 23 21 42 14 23 24 58 27 101 5 74 -4 98 -87 222 -52 77 -91 179
-91 236 0 61 28 197 51 251 24 56 32 53 43 -17z m-784 20 c0 -5 -9 -32 -20
-61 -13 -33 -20 -77 -20 -120 0 -37 -6 -78 -13 -92 -14 -27 -75 -72 -91 -67
-6 2 -14 27 -19 57 -4 29 -16 73 -27 98 -11 24 -20 53 -20 63 0 21 65 68 142
104 57 26 68 29 68 18z m91 -61 c16 -25 29 -58 29 -73 0 -15 7 -34 15 -43 21
-20 20 -22 -26 -77 -60 -72 -74 -77 -99 -37 -26 43 -28 182 -4 231 35 69 41
68 85 -1z m292 14 c42 -12 82 -27 88 -33 8 -8 3 -33 -15 -88 -14 -43 -26 -92
-26 -111 0 -44 -12 -49 -41 -18 -18 19 -24 37 -24 72 0 42 -13 75 -73 195 -5
10 5 9 91 -17z m-659 -21 c9 -13 16 -29 16 -36 0 -6 9 -22 20 -36 25 -32 60
-143 60 -192 0 -29 -7 -44 -36 -72 -69 -66 -134 -226 -134 -330 0 -32 -4 -61
-10 -64 -15 -9 -88 16 -106 37 -10 10 -22 18 -28 18 -25 0 -97 87 -111 135
-19 62 -19 201 -1 253 35 99 201 292 252 292 7 0 14 -1 14 -2 0 -2 -9 -32 -20
-68 -23 -76 -28 -214 -7 -208 8 3 14 36 18 94 4 49 10 100 14 114 29 102 32
106 59 65z m891 -1 c28 -15 53 -31 56 -36 3 -5 4 -53 1 -107 -5 -112 8 -167
64 -260 45 -74 51 -108 26 -162 -18 -42 -101 -129 -122 -129 -5 0 -10 18 -10
40 0 47 -18 60 -52 36 -12 -9 -26 -16 -30 -16 -5 0 -8 35 -8 78 0 92 -17 157
-57 215 -23 35 -28 52 -27 102 1 68 51 242 66 227 5 -5 24 -69 44 -143 44
-172 42 -165 57 -150 9 9 6 30 -15 94 -35 111 -68 222 -68 230 0 13 26 7 75
-19z m-305 -46 c17 -35 30 -74 30 -87 l0 -24 -24 23 c-36 33 -53 21 -58 -45
-6 -67 -27 -99 -92 -139 l-47 -30 -31 31 -31 31 73 79 c88 95 130 158 130 195
0 45 19 32 50 -34z m1440 1 c15 -63 53 -107 131 -154 80 -49 143 -124 180
-215 47 -116 50 -122 45 -71 -10 103 -106 238 -220 310 -71 44 -99 76 -116
127 -15 44 -7 54 23 27 35 -32 60 -42 149 -58 166 -30 187 -37 234 -78 58 -51
89 -113 120 -244 22 -90 25 -124 22 -213 -3 -91 -8 -112 -32 -160 -56 -108
-157 -226 -251 -292 -74 -52 -93 -50 -51 5 14 18 37 59 52 91 47 102 23 187
-98 348 -34 46 -83 108 -109 138 -56 65 -138 234 -146 301 -5 39 7 101 32 177
9 26 23 10 35 -39z m-1389 -186 c29 -38 63 -79 76 -93 50 -54 67 -108 68 -212
0 -118 -4 -124 -107 -147 l-73 -17 -71 -108 c-73 -110 -119 -165 -129 -154 -3
3 1 13 10 21 18 18 13 22 -37 31 -25 5 -38 12 -38 22 0 9 24 42 53 74 28 32
60 76 71 97 10 21 22 46 27 55 22 42 3 145 -41 229 -17 31 -30 59 -30 63 0 3
18 15 39 26 22 11 48 31 58 45 54 77 48 77 73 0 12 -39 22 -85 22 -102 0 -23
5 -33 15 -33 20 0 12 59 -22 153 -22 61 -32 117 -21 117 2 0 28 -30 57 -67z
m-345 -30 c10 -16 39 -54 66 -86 52 -63 86 -121 103 -177 15 -49 10 -138 -9
-159 -9 -10 -14 -20 -11 -23 3 -3 -6 -16 -20 -29 -13 -13 -25 -28 -25 -34 0
-15 -89 -92 -127 -110 -22 -10 -66 -18 -110 -20 -98 -3 -125 16 -179 124 -24
49 -26 63 -22 136 4 71 10 95 45 167 31 66 52 94 94 129 78 65 117 91 129 84
6 -3 13 1 16 9 9 24 30 19 50 -11z m-2106 -14 c7 -11 29 -44 51 -72 22 -29 53
-81 71 -117 28 -59 31 -77 37 -195 7 -153 26 -201 111 -298 42 -46 70 -66 148
-103 98 -47 195 -74 269 -74 54 0 62 -15 21 -37 -27 -14 -57 -18 -158 -17
-116 0 -133 2 -245 38 -66 20 -142 44 -170 53 -53 17 -119 48 -147 71 -10 8
-29 51 -43 95 -28 85 -63 143 -130 217 -47 51 -65 102 -65 181 0 66 16 94 104
183 36 36 66 70 66 76 0 5 7 10 16 10 18 0 17 -28 -6 -205 -6 -44 -8 -107 -4
-140 6 -61 36 -130 61 -139 20 -8 16 9 -11 49 -33 47 -42 129 -28 231 7 44 12
107 12 140 0 34 3 64 7 67 11 12 22 8 33 -14z m917 -79 c129 -65 183 -133 183
-231 0 -120 60 -311 125 -400 20 -26 31 -50 26 -53 -9 -6 -112 13 -177 33
-127 37 -273 151 -315 243 -34 75 -32 222 3 323 32 91 50 95 84 20 22 -47 27
-77 33 -185 6 -118 9 -132 31 -156 14 -14 33 -30 43 -36 34 -18 31 1 -6 37
-35 34 -37 40 -37 98 0 122 -22 217 -67 289 -43 70 -33 73 74 18z m-1102 10
c-3 -5 -12 -10 -18 -10 -7 0 -6 4 3 10 19 12 23 12 15 0z m4053 -112 c12 -18
35 -46 52 -63 77 -73 104 -189 60 -259 -27 -44 -55 -61 -110 -69 l-45 -6 -28
68 c-15 37 -43 86 -63 109 l-36 42 42 47 c23 26 53 73 68 105 15 32 30 58 34
58 3 0 15 -15 26 -32z m-465 -41 c-53 -86 -152 -201 -198 -232 -45 -30 -121
-54 -172 -55 -12 0 2 26 22 42 14 11 45 45 69 76 34 45 54 61 92 75 27 9 79
37 114 62 67 46 87 55 73 32z m-3118 -15 l80 -7 2 -85 c2 -46 5 -90 7 -97 3
-7 19 -13 36 -13 38 0 39 -14 0 -30 -37 -15 -37 -23 -4 -100 15 -33 25 -63 22
-66 -9 -9 -103 32 -149 64 -101 72 -93 55 -100 204 -3 73 -4 136 -2 140 2 4 9
5 16 2 7 -2 49 -8 92 -12z m2642 -84 c-3 -8 -6 -5 -6 6 -1 11 2 17 5 13 3 -3
4 -12 1 -19z m735 -26 c10 -15 37 -50 61 -78 35 -41 49 -68 67 -135 45 -165
37 -292 -25 -390 -62 -98 -89 -131 -161 -193 -76 -65 -175 -120 -236 -131 -57
-11 -49 14 25 74 72 59 110 104 137 164 27 58 26 75 -21 249 -45 168 -60 298
-39 348 15 35 93 110 115 110 13 0 15 -7 10 -33 -4 -20 0 -50 10 -77 10 -25
26 -70 38 -100 11 -30 26 -84 32 -120 9 -49 14 -60 20 -46 5 11 3 46 -4 80
-11 55 -24 91 -73 206 -11 25 -13 44 -6 68 11 39 27 41 50 4z m-735 -39 c-3
-10 -5 -4 -5 12 0 17 2 24 5 18 2 -7 2 -21 0 -30z m-297 -21 c0 -7 -89 -118
-180 -223 -48 -56 -55 -78 -19 -58 10 5 72 73 136 151 90 108 119 137 122 123
2 -11 1 -65 -1 -121 -4 -90 -8 -110 -40 -175 -79 -166 -244 -271 -400 -255
-71 7 -120 27 -164 66 -19 16 -39 30 -44 30 -6 0 -10 7 -10 15 0 8 17 19 42
26 55 14 135 66 177 115 19 21 68 89 108 151 l74 112 68 15 c37 9 79 20 92 25
30 12 39 13 39 3z m790 -158 c-12 -21 -38 -39 -46 -31 -2 1 9 23 24 47 20 35
27 41 30 26 2 -10 -2 -29 -8 -42z m33 -92 l15 -52 -42 -29 c-24 -17 -67 -34
-101 -40 -71 -13 -172 -14 -179 -2 -3 5 20 19 52 32 70 28 102 49 170 112 30
27 57 46 62 41 4 -5 15 -33 23 -62z m-176 4 c-38 -34 -77 -52 -77 -35 0 5 6 9
13 9 6 1 30 14 52 30 53 39 59 37 12 -4z m-3229 -155 c20 -10 64 -26 96 -35
33 -10 92 -31 133 -47 103 -41 147 -49 277 -50 113 -2 114 -2 199 39 47 23 95
50 106 61 28 28 45 28 31 0 -22 -40 -96 -102 -155 -130 -107 -50 -175 -62
-310 -55 -122 6 -370 47 -385 62 -9 10 -50 144 -50 163 0 16 15 14 58 -8z
m2084 -156 c35 -17 37 -21 32 -54 -4 -28 3 -60 31 -133 34 -89 43 -103 114
-172 124 -123 211 -181 299 -201 17 -3 34 -11 38 -16 12 -21 -7 -58 -42 -78
-34 -21 -37 -21 -92 -5 -31 9 -85 29 -119 44 -67 30 -63 23 -75 139 -4 36 -31
48 -70 32 -66 -26 -65 -26 -101 31 -53 82 -69 139 -74 270 -5 112 0 173 15
166 4 -2 24 -12 44 -23z m1086 -145 c2 -70 0 -81 -38 -158 -22 -46 -40 -88
-40 -93 0 -26 26 12 62 88 36 76 40 93 39 160 -1 66 1 74 14 63 28 -23 48
-118 42 -198 -5 -65 -11 -82 -42 -127 -42 -62 -144 -127 -226 -146 -63 -14
-231 -23 -265 -15 -38 10 -28 24 21 32 106 15 225 115 264 219 27 70 99 215
119 238 32 36 47 17 50 -63z m-3039 -324 c86 -37 200 -115 290 -198 91 -85
139 -102 291 -102 92 -1 113 3 170 26 l65 27 -42 -35 c-23 -19 -65 -64 -94
-100 -56 -71 -151 -140 -207 -150 -18 -4 -64 -4 -102 -2 -54 4 -81 13 -132 41
-86 48 -182 151 -243 261 -36 64 -68 105 -115 147 -49 45 -60 59 -44 59 34 0
108 -54 201 -147 84 -85 186 -153 227 -153 27 0 8 20 -38 39 -56 25 -124 78
-200 158 -64 67 -146 119 -209 132 -17 4 -33 13 -35 20 -8 25 142 9 217 -23z
m3226 4 c20 -39 20 -180 -1 -239 -13 -39 -13 -63 2 -49 15 16 34 121 32 180
-1 37 1 70 5 74 11 11 87 -65 103 -103 19 -45 17 -124 -4 -180 -24 -64 -111
-181 -177 -240 -29 -27 -80 -62 -112 -78 -53 -27 -67 -30 -158 -30 -95 0 -104
2 -177 38 -43 21 -78 42 -78 47 0 6 15 10 34 10 100 0 273 124 335 239 33 62
61 157 61 206 0 62 18 99 62 127 24 15 46 28 50 28 4 0 14 -13 23 -30z m-1150
-42 c-4 -18 -18 -67 -32 -108 -15 -41 -41 -130 -59 -198 -17 -68 -40 -132 -49
-142 -16 -18 -8 -35 11 -22 18 12 31 44 48 121 10 41 32 120 51 175 18 56 37
117 40 136 4 19 12 44 18 55 9 16 14 2 23 -80 20 -171 17 -325 -7 -397 -46
-133 -152 -237 -269 -263 -55 -13 -224 -6 -262 9 -49 21 -109 84 -146 154 -18
34 -64 95 -102 136 -64 69 -98 116 -85 116 3 0 36 -15 73 -34 37 -19 89 -40
115 -47 71 -17 183 -7 248 23 45 21 59 34 88 84 89 154 125 206 165 239 24 19
48 35 53 35 5 0 18 9 28 20 10 11 27 20 37 20 17 0 19 -5 13 -32z m693 -94
c10 -3 10 -9 -1 -31 -8 -16 -17 -41 -21 -56 -12 -48 -56 -107 -81 -107 -31 0
-155 165 -155 205 0 5 240 -5 258 -11z m-291 -104 c1 -19 5 -79 9 -132 7 -104
-6 -180 -47 -260 -11 -21 -15 -38 -10 -38 14 0 28 29 55 113 25 75 26 114 11
275 -10 104 3 108 66 20 64 -91 71 -112 67 -198 -2 -60 -9 -88 -35 -140 -44
-90 -93 -145 -151 -167 -102 -39 -341 -14 -404 43 -18 17 -18 18 5 43 13 14
34 41 46 59 17 25 29 32 55 32 69 0 147 93 160 189 8 64 33 116 73 152 64 59
97 62 100 9z"/>
<path d="M4415 6760 c-8 -14 3 -30 21 -30 8 0 14 9 14 20 0 21 -24 28 -35 10z"/>
<path d="M3350 6345 c0 -16 6 -25 15 -25 9 0 15 9 15 25 0 16 -6 25 -15 25 -9
0 -15 -9 -15 -25z"/>
<path d="M4860 5979 c0 -15 5 -20 22 -17 34 5 37 38 4 38 -20 0 -26 -5 -26
-21z"/>
<path d="M2364 5929 c-8 -14 11 -33 25 -25 6 4 11 14 11 22 0 16 -26 19 -36 3z"/>
<path d="M3830 5920 c0 -5 7 -10 16 -10 8 0 12 5 9 10 -3 6 -10 10 -16 10 -5
0 -9 -4 -9 -10z"/>
<path d="M5844 5197 c-6 -17 2 -37 16 -37 15 0 19 29 5 40 -12 10 -16 9 -21
-3z"/>
<path d="M6394 5119 c-10 -17 13 -36 27 -22 12 12 4 33 -11 33 -5 0 -12 -5
-16 -11z"/>
<path d="M2886 4962 c-8 -13 11 -35 23 -28 16 10 14 36 -3 36 -8 0 -17 -4 -20
-8z"/>
<path d="M2357 5015 c-8 -18 11 -31 25 -17 11 11 3 32 -12 32 -4 0 -10 -7 -13
-15z"/>
<path d="M5447 4996 c-7 -17 2 -56 13 -56 18 0 34 32 24 48 -14 22 -30 26 -37
8z"/>
<path d="M3603 4945 c-3 -9 -3 -18 0 -21 10 -10 47 7 47 22 0 19 -39 18 -47
-1z"/>
<path d="M5145 4770 c-4 -6 -3 -16 3 -22 6 -6 12 -6 17 2 4 6 3 16 -3 22 -6 6
-12 6 -17 -2z"/>
<path d="M5997 4344 c-11 -11 -8 -44 3 -44 15 0 24 30 13 41 -5 5 -12 6 -16 3z"/>
<path d="M3707 4443 c-10 -9 -8 -43 2 -43 5 0 14 7 21 15 17 21 -4 48 -23 28z"/>
<path d="M5412 4147 c-14 -16 -6 -27 20 -27 13 0 18 6 16 17 -4 22 -22 27 -36
10z"/>
<path d="M4070 4255 c-10 -12 -10 -19 -2 -27 15 -15 48 14 38 31 -10 15 -21
14 -36 -4z"/>
<path d="M5081 4196 c-16 -19 -7 -46 14 -46 22 0 30 29 13 46 -13 13 -16 13
-27 0z"/>
<path d="M6594 4016 c-4 -10 -2 -22 4 -28 8 -8 13 -7 18 6 4 10 2 22 -4 28 -8
8 -13 7 -18 -6z"/>
<path d="M4806 4093 c-12 -12 -6 -33 9 -33 8 0 15 6 15 14 0 17 -14 28 -24 19z"/>
<path d="M4418 4317 c-5 -10 -8 -44 -8 -75 0 -31 -7 -84 -14 -117 -8 -33 -13
-61 -11 -63 12 -13 24 18 35 90 13 88 11 198 -2 165z"/>
<path d="M4375 3960 c-3 -6 1 -13 10 -16 19 -8 30 0 20 15 -8 14 -22 14 -30 1z"/>
<path d="M2382 3781 c4 -13 18 -16 19 -4 0 4 -5 9 -11 12 -7 2 -11 -2 -8 -8z"/>
<path d="M3366 3743 c-12 -12 -6 -33 9 -33 8 0 15 6 15 14 0 17 -14 28 -24 19z"/>
<path d="M6034 3535 c-9 -23 14 -45 26 -25 5 8 8 19 7 24 -6 17 -27 18 -33 1z"/>
<path d="M4744 3576 c-8 -22 2 -46 21 -46 19 0 20 34 0 50 -12 10 -16 9 -21
-4z"/>
<path d="M5480 2905 c0 -8 5 -15 10 -15 6 0 10 7 10 15 0 8 -4 15 -10 15 -5 0
-10 -7 -10 -15z"/>
<path d="M2860 2537 c0 -21 12 -28 27 -16 19 16 16 29 -7 29 -11 0 -20 -6 -20
-13z"/>
<path d="M5724 2526 c-8 -22 3 -33 18 -18 9 9 9 15 0 24 -9 9 -13 7 -18 -6z"/>
<path d="M4334 2369 c-8 -14 11 -33 25 -25 6 4 11 14 11 22 0 16 -26 19 -36 3z"/>
<path d="M4865 2250 c-4 -7 -3 -16 3 -22 14 -14 45 -2 40 15 -6 16 -34 21 -43
7z"/>
<path d="M4340 5780 c-8 -5 -11 -12 -7 -16 4 -4 13 -2 19 4 15 15 7 24 -12 12z"/>
<path d="M6082 5769 c2 -6 8 -10 13 -10 5 0 11 4 13 10 2 6 -4 11 -13 11 -9 0
-15 -5 -13 -11z"/>
<path d="M4300 5750 c0 -5 5 -10 10 -10 6 0 10 5 10 10 0 6 -4 10 -10 10 -5 0
-10 -4 -10 -10z"/>
<path d="M1770 5660 c0 -5 5 -10 10 -10 6 0 10 5 10 10 0 6 -4 10 -10 10 -5 0
-10 -4 -10 -10z"/>
<path d="M1730 5640 c0 -5 7 -10 15 -10 8 0 15 5 15 10 0 6 -7 10 -15 10 -8 0
-15 -4 -15 -10z"/>
<path d="M4484 5607 c3 -10 6 -25 6 -33 0 -9 5 -12 10 -9 14 9 13 18 -6 41
-14 17 -15 17 -10 1z"/>
<path d="M4340 5579 c0 -9 7 -22 15 -29 19 -16 19 0 0 26 -12 16 -14 16 -15 3z"/>
<path d="M4050 5525 c0 -8 7 -15 15 -15 8 0 15 7 15 15 0 8 -7 15 -15 15 -8 0
-15 -7 -15 -15z"/>
<path d="M4508 5473 c4 -55 2 -68 -12 -79 -17 -12 -15 -15 16 -43 39 -36 68
-39 93 -11 24 26 13 36 -18 16 -21 -15 -26 -15 -37 -2 -10 13 -29 116 -30 169
0 9 -4 17 -9 17 -5 0 -6 -30 -3 -67z"/>
<path d="M4390 5480 c0 -5 5 -10 10 -10 6 0 10 5 10 10 0 6 -4 10 -10 10 -5 0
-10 -4 -10 -10z"/>
<path d="M3632 5444 c4 -21 22 -23 26 -1 2 10 -3 17 -13 17 -10 0 -15 -6 -13
-16z"/>
<path d="M1657 4995 c-8 -18 11 -31 25 -17 11 11 3 32 -12 32 -4 0 -10 -7 -13
-15z"/>
<path d="M2202 3379 c1 -12 9 -24 16 -27 9 -3 13 3 10 19 -1 12 -9 24 -16 27
-9 3 -13 -3 -10 -19z"/>
<path d="M6947 3384 c-8 -8 1 -24 14 -24 5 0 9 7 9 15 0 15 -12 20 -23 9z"/>
</g>
</svg>
