<?xml version="1.0" standalone="no"?>
<!DOCTYPE svg PUBLIC "-//W3C//DTD SVG 20010904//EN"
 "http://www.w3.org/TR/2001/REC-SVG-20010904/DTD/svg10.dtd">
<svg version="1.0" xmlns="http://www.w3.org/2000/svg"
 width="625.000000pt" height="608.000000pt" viewBox="0 0 625.000000 608.000000"
 preserveAspectRatio="xMidYMid meet">

<g transform="translate(0.000000,608.000000) scale(0.100000,-0.100000)"
fill="#000000" stroke="none">
<path d="M2200 5680 l0 -160 -315 0 -315 0 0 -155 0 -155 -155 0 -155 0 0
-160 0 -160 -160 0 -160 0 0 -155 0 -155 -155 0 -155 0 0 -315 0 -315 -160 0
-160 0 2 -942 3 -943 157 -3 158 -3 0 -314 0 -315 155 0 155 0 0 -155 0 -155
160 0 160 0 0 -155 0 -155 155 0 155 0 0 -160 0 -160 315 0 315 0 0 -155 0
-155 940 0 940 0 0 155 0 155 315 0 315 0 0 160 0 160 155 0 155 0 0 155 0
155 160 0 160 0 0 155 0 155 155 0 155 0 0 315 0 314 158 3 157 3 3 943 2 942
-160 0 -160 0 0 315 0 315 -155 0 -155 0 0 155 0 155 -160 0 -160 0 0 160 0
160 -155 0 -155 0 0 155 0 155 -315 0 -315 0 0 160 0 160 -940 0 -940 0 0
-160z m1880 -314 c0 -127 3 -155 15 -160 8 -3 145 -5 305 -6 159 0 295 0 300
0 6 0 10 -58 10 -155 l0 -155 155 0 155 0 0 -155 0 -155 160 0 160 0 0 -315 0
-315 155 0 155 0 0 -940 0 -940 -155 0 -155 0 0 -315 0 -315 -160 0 -160 0 0
-160 0 -160 -155 0 -155 0 0 -155 0 -155 -315 0 -315 0 0 -160 0 -160 -940 0
-940 0 0 160 0 160 -315 0 -315 0 0 155 0 155 -155 0 -154 0 -3 157 -3 158
-157 3 -158 3 0 309 0 310 -155 0 -155 0 0 945 0 945 155 0 155 0 0 315 0 315
160 0 160 0 0 155 0 155 155 0 155 0 0 160 0 160 315 0 315 0 0 155 0 155 940
0 940 0 0 -154z"/>
<path d="M1880 4265 l0 -315 160 0 160 0 0 -315 0 -315 155 0 155 0 0 -155 0
-155 -312 -2 -313 -3 -3 -157 -3 -158 476 0 475 0 0 -155 0 -155 -472 -2 -473
-3 0 -155 0 -155 473 -3 472 -2 0 -470 0 -470 310 0 310 0 0 470 0 470 473 2
472 3 3 157 3 158 -476 0 -475 0 0 155 0 155 475 0 476 0 -3 158 -3 157 -312
3 -313 2 0 155 0 155 155 0 155 0 0 315 0 315 160 0 160 0 0 315 0 315 -315 0
-315 0 0 -315 0 -315 -160 0 -160 0 0 -315 0 -315 -310 0 -310 0 0 315 0 315
-160 0 -160 0 0 315 0 315 -315 0 -315 0 0 -315z"/>
</g>
</svg>
