<?xml version="1.0" standalone="no"?>
<!DOCTYPE svg PUBLIC "-//W3C//DTD SVG 20010904//EN"
 "http://www.w3.org/TR/2001/REC-SVG-20010904/DTD/svg10.dtd">
<svg version="1.0" xmlns="http://www.w3.org/2000/svg"
 width="143.000000pt" height="156.000000pt" viewBox="0 0 143.000000 156.000000"
 preserveAspectRatio="xMidYMid meet">

<g transform="translate(0.000000,156.000000) scale(0.100000,-0.100000)"
fill="#000000" stroke="none">
<path d="M643 1409 c-214 -20 -417 -158 -515 -352 -44 -89 -68 -195 -68 -305
0 -115 19 -201 68 -302 50 -104 176 -230 282 -283 198 -98 403 -101 595 -8
143 69 240 168 311 316 171 357 -19 785 -404 910 -68 22 -179 32 -269 24z
m100 -149 l25 -20 -33 -33 c-22 -22 -35 -46 -40 -75 -4 -27 -13 -45 -23 -49
-10 -3 -45 -15 -80 -28 l-62 -23 -28 22 c-38 32 -67 46 -95 46 -33 0 -37 7
-25 41 11 33 33 48 73 51 18 2 32 12 41 29 7 15 21 29 29 33 24 9 68 7 84 -3
10 -7 23 -3 39 10 32 24 63 24 95 -1z m197 -163 c0 -2 -7 -19 -16 -37 -33 -65
6 -227 70 -295 19 -19 41 -35 50 -35 26 0 19 -16 -21 -48 -129 -101 -409 -187
-529 -162 -61 13 -77 30 -124 134 -41 90 -52 167 -30 204 23 37 92 96 155 133
53 31 202 84 276 98 44 9 169 14 169 8z m68 -42 c79 -66 113 -295 44 -295 -49
0 -112 117 -120 220 -3 53 -1 69 13 83 22 22 28 22 63 -8z m-76 -609 c19 -14
49 -31 66 -37 32 -11 42 -39 24 -65 -10 -16 -48 -34 -71 -34 -11 0 -22 -9 -26
-19 -8 -27 -60 -47 -88 -34 -17 8 -28 7 -42 -3 -24 -18 -66 -18 -91 0 -18 14
-18 16 -2 44 17 29 17 30 -4 35 -14 4 -31 -2 -50 -18 -15 -13 -37 -27 -49 -30
-12 -4 -37 -18 -57 -31 -25 -18 -47 -24 -72 -22 -34 3 -35 4 -35 43 l0 40 40
-1 c22 0 54 -4 70 -8 22 -5 39 -1 64 14 18 12 31 23 29 26 -5 5 -83 28 -153
45 -104 25 -129 51 -92 95 30 35 57 27 98 -31 27 -38 69 -65 100 -65 5 0 6 13
3 30 -8 36 9 60 42 60 25 0 54 -34 54 -62 0 -21 10 -23 35 -4 16 11 17 18 7
57 -6 24 -10 44 -9 46 2 1 32 13 67 25 l65 24 21 -47 c12 -25 37 -58 56 -73z"/>
<path d="M645 1180 c-3 -5 1 -10 10 -10 9 0 13 5 10 10 -3 6 -8 10 -10 10 -2
0 -7 -4 -10 -10z"/>
<path d="M565 1150 c-9 -15 4 -30 26 -30 12 0 19 7 19 20 0 21 -33 29 -45 10z"/>
<path d="M505 1130 c-3 -5 -1 -10 4 -10 6 0 11 5 11 10 0 6 -2 10 -4 10 -3 0
-8 -4 -11 -10z"/>
<path d="M740 952 c-80 -26 -121 -45 -112 -54 9 -9 101 12 129 30 16 10 2 30
-17 24z"/>
<path d="M740 903 c-8 -3 -29 -11 -47 -19 -17 -8 -36 -14 -43 -14 -7 0 -9 -8
-5 -22 12 -38 22 -42 62 -25 21 9 48 19 61 22 13 4 22 14 22 25 0 22 -27 40
-50 33z m-7 -44 c-6 -6 -19 -9 -29 -6 -17 3 -16 5 6 14 28 12 39 8 23 -8z"/>
<path d="M546 884 c-9 -24 -8 -25 26 -22 22 2 34 9 36 21 5 23 -53 24 -62 1z"/>
<path d="M578 838 c-34 -12 -39 -48 -7 -48 19 0 20 -4 15 -35 -8 -39 10 -49
34 -20 7 9 19 14 26 11 7 -3 15 0 17 7 5 12 6 10 27 -46 6 -17 15 -26 23 -23
6 3 38 13 70 22 55 17 58 19 52 43 -18 74 -53 98 -98 68 -12 -8 -36 -17 -54
-21 -27 -6 -33 -4 -45 20 -15 33 -24 36 -60 22z m162 -62 c0 -11 -19 -15 -25
-6 -3 5 1 10 9 10 9 0 16 -2 16 -4z m10 -46 c0 -5 -4 -10 -10 -10 -5 0 -10 5
-10 10 0 6 5 10 10 10 6 0 10 -4 10 -10z"/>
<path d="M625 716 c-16 -12 -17 -18 -8 -39 9 -19 17 -24 32 -20 24 6 26 18 8
51 -11 20 -15 21 -32 8z"/>
<path d="M967 1025 c-17 -43 40 -196 74 -203 21 -4 31 34 20 73 l-9 30 -1 -32
c-1 -41 -16 -42 -40 -2 -40 65 -36 141 6 108 17 -13 17 -13 2 11 -19 30 -44
37 -52 15z"/>
<path d="M620 432 c0 -20 36 -59 46 -49 3 3 2 18 -3 34 -11 33 -43 44 -43 15z"/>
<path d="M823 384 c-3 -8 -1 -20 5 -26 16 -16 42 -2 42 22 0 24 -38 28 -47 4z"/>
<path d="M710 370 c0 -5 4 -10 9 -10 6 0 13 5 16 10 3 6 -1 10 -9 10 -9 0 -16
-4 -16 -10z"/>
</g>
</svg>
