<?xml version="1.0" standalone="no"?>
<!DOCTYPE svg PUBLIC "-//W3C//DTD SVG 20010904//EN"
 "http://www.w3.org/TR/2001/REC-SVG-20010904/DTD/svg10.dtd">
<svg version="1.0" xmlns="http://www.w3.org/2000/svg"
 width="626.000000pt" height="626.000000pt" viewBox="0 0 626.000000 626.000000"
 preserveAspectRatio="xMidYMid meet">

<g transform="translate(0.000000,626.000000) scale(0.100000,-0.100000)"
fill="#000000" stroke="none">
<path d="M3036 5261 c-3 -4 6 -6 19 -3 14 2 25 6 25 8 0 8 -39 4 -44 -5z"/>
<path d="M3068 5213 c7 -3 16 -2 19 1 4 3 -2 6 -13 5 -11 0 -14 -3 -6 -6z"/>
<path d="M3183 5191 c1 -18 35 -37 46 -26 5 6 -29 45 -40 45 -4 0 -7 -9 -6
-19z"/>
<path d="M3343 5193 c9 -2 23 -2 30 0 6 3 -1 5 -18 5 -16 0 -22 -2 -12 -5z"/>
<path d="M2478 5173 c7 -3 16 -2 19 1 4 3 -2 6 -13 5 -11 0 -14 -3 -6 -6z"/>
<path d="M3358 5151 c-11 -18 -22 -18 -172 -14 -400 14 -781 -88 -1111 -296
l-100 -63 -85 7 c-127 10 -432 51 -635 86 -153 26 -497 97 -559 116 -17 5 -18
1 -12 -46 10 -79 46 -184 68 -199 11 -8 17 -20 13 -29 -8 -24 32 -98 73 -134
20 -18 55 -40 78 -50 23 -11 53 -34 68 -54 34 -44 105 -67 286 -90 74 -10 139
-21 143 -25 5 -4 -15 -50 -44 -101 -29 -52 -78 -148 -110 -213 l-58 -119 -116
2 c-133 3 -135 1 -90 -86 33 -61 60 -90 110 -115 22 -11 41 -22 43 -23 4 -4
-18 -44 -37 -68 -12 -15 -13 -26 -3 -60 10 -37 9 -44 -8 -57 -18 -14 -19 -31
-21 -205 -1 -166 1 -190 15 -193 9 -2 16 -8 16 -13 0 -6 -4 -8 -10 -4 -5 3
-10 -21 -12 -57 -3 -71 34 -198 58 -198 15 0 19 -36 5 -42 -28 -10 67 -347
124 -438 18 -29 45 -93 45 -106 0 -2 -7 -1 -17 3 -13 5 -12 -1 7 -35 13 -23
26 -40 28 -37 7 7 52 -56 52 -72 0 -7 11 -23 25 -35 14 -12 25 -32 25 -45 0
-14 6 -23 16 -23 15 0 53 -37 54 -52 0 -5 -7 -8 -16 -8 -12 0 -9 -8 11 -32
l28 -33 -4 -335 -4 -335 35 -17 c103 -50 265 -61 340 -23 71 36 70 34 70 187
0 76 2 138 4 138 3 0 22 -10 43 -22 29 -17 35 -18 24 -5 -12 15 -11 17 10 17
34 0 46 -11 55 -44 6 -25 5 -28 -11 -23 -12 5 -9 -3 11 -28 57 -70 71 -82 119
-100 28 -10 111 -42 185 -70 130 -51 286 -90 295 -74 3 4 26 -4 52 -19 35 -19
64 -27 111 -28 34 -2 82 -10 106 -19 41 -16 69 -16 256 -4 14 1 57 1 96 -1 39
-1 80 3 92 9 11 6 69 11 128 12 97 1 116 4 173 30 67 30 91 36 91 19 0 -6 9
-6 25 0 14 5 55 14 92 20 83 14 103 24 96 50 -4 15 0 20 15 20 12 0 24 -5 27
-10 8 -13 25 -13 25 -1 0 22 82 132 95 127 7 -2 21 5 32 16 18 20 18 18 23
-73 l5 -93 46 -24 c90 -46 249 -39 355 16 l36 18 -1 252 -2 252 40 52 c28 37
36 55 28 60 -8 6 -3 15 16 30 16 11 32 31 37 43 7 17 14 21 33 18 31 -6 70 14
64 32 -3 7 0 18 6 25 9 10 9 11 0 6 -7 -4 -13 -3 -13 2 0 6 7 12 15 15 20 8
76 123 69 142 -4 8 -2 21 4 28 5 6 13 27 17 45 3 18 10 30 14 28 4 -3 26 59
48 137 53 183 54 186 64 287 11 117 16 148 31 200 12 40 12 46 -5 63 -18 18
-18 19 1 52 11 18 16 37 12 41 -13 13 -13 88 -1 168 6 38 7 75 2 85 -15 29
-23 111 -11 111 17 0 42 28 31 34 -5 4 -11 1 -13 -6 -7 -21 -28 3 -28 32 0 16
-4 39 -9 52 -20 53 -40 126 -45 163 -5 39 -4 41 42 70 89 57 144 177 88 191
-14 3 -29 4 -33 1 -5 -3 -53 -7 -108 -8 l-99 -3 -23 44 c-16 29 -20 46 -12 50
7 5 0 30 -21 76 -17 38 -33 78 -34 89 -2 11 -23 54 -49 95 -25 41 -42 78 -39
81 4 4 66 14 139 23 180 22 257 47 286 91 13 21 38 41 62 51 22 8 55 27 72 40
41 31 85 106 82 136 -2 14 7 33 23 49 18 19 31 50 47 116 21 89 25 123 17 123
-3 0 -60 -13 -128 -29 -255 -61 -590 -119 -893 -156 l-190 -23 -50 39 c-27 21
-66 52 -86 69 -45 37 -146 83 -154 70 -10 -16 -52 -11 -59 6 -3 8 -11 12 -17
9 -5 -4 -36 10 -67 31 -32 21 -51 39 -44 42 24 8 -20 30 -73 37 -28 3 -59 10
-70 15 -40 18 -98 40 -104 40 -3 0 17 -14 46 -30 65 -38 78 -55 32 -45 -19 4
-44 14 -56 22 -12 8 -26 12 -31 9 -8 -5 -76 5 -200 30 -30 6 -18 24 16 24 21
0 24 2 12 10 -23 15 -39 12 -52 -9z m442 -121 c0 -5 -13 -4 -30 1 -16 6 -30
15 -30 19 0 5 14 4 30 -1 17 -6 30 -15 30 -19z m-2550 -200 c451 -76 778 -116
1145 -142 279 -19 1201 -16 1495 6 312 23 736 77 1080 137 132 23 491 98 502
105 5 3 8 -2 8 -10 0 -16 -11 -20 -180 -60 -184 -44 -743 -141 -950 -165 -52
-6 -126 -16 -165 -21 -142 -19 -740 -43 -1095 -43 -589 0 -1042 29 -1450 94
-248 39 -637 111 -735 135 -168 42 -175 44 -175 58 0 9 37 4 143 -21 78 -18
248 -51 377 -73z m2881 53 c44 -26 35 -36 -11 -13 -22 11 -40 23 -40 25 0 10
23 4 51 -12z m-3171 -67 c91 -19 220 -45 288 -57 67 -12 122 -26 122 -31 0 -4
-12 -5 -27 -3 -16 3 -108 19 -207 35 -98 17 -184 29 -190 27 -6 -2 68 -18 164
-36 96 -18 186 -36 200 -40 24 -8 24 -8 -17 -29 -23 -12 -53 -22 -67 -22 -32
0 -363 67 -398 81 -37 15 -67 50 -74 88 -7 32 -6 34 17 28 13 -3 98 -22 189
-41z m4495 17 c-10 -44 -34 -74 -68 -88 -18 -7 -95 -25 -172 -40 -77 -15 -153
-33 -168 -41 -16 -8 -44 -14 -62 -14 -19 0 -143 -16 -277 -34 -269 -39 -644
-79 -680 -74 -23 3 -23 3 6 29 25 24 39 28 130 34 55 4 130 13 166 21 59 12
60 13 15 9 -165 -16 -218 -18 -211 -7 4 7 22 12 39 12 33 0 294 32 407 50 128
20 409 74 630 120 124 26 231 48 239 49 9 1 11 -6 6 -26z m-3860 -137 c594
-97 1654 -127 2408 -67 48 4 87 4 87 0 0 -9 -53 -19 -109 -20 -25 -1 -59 -5
-76 -9 -21 -6 -7 -8 48 -7 42 1 77 0 77 -3 0 -3 -28 -18 -62 -33 -95 -41 -276
-52 -890 -52 -284 0 -514 -3 -511 -7 11 -19 -19 -5 -64 28 -26 20 -42 31 -35
23 6 -7 12 -17 12 -22 0 -11 -125 -4 -430 24 -305 28 -729 83 -758 98 -8 5 1
15 27 29 34 20 46 21 78 13 52 -14 204 -24 177 -12 -11 5 -55 15 -97 21 -42 7
-77 17 -77 22 0 4 10 6 23 3 12 -3 90 -16 172 -29z m-615 -32 c141 -29 192
-49 243 -93 44 -39 54 -39 26 -1 -13 16 -20 32 -17 36 7 7 492 -63 523 -75 18
-7 15 -11 -22 -30 -23 -11 -50 -21 -60 -21 -22 0 63 -40 86 -40 9 0 23 -5 31
-10 10 -7 -9 -9 -60 -5 l-75 4 75 -13 c41 -7 98 -16 125 -20 42 -5 46 -4 25 6
-87 39 -149 74 -147 83 2 5 21 16 42 24 33 13 57 13 199 -2 88 -10 233 -22
321 -28 88 -5 188 -12 221 -15 l62 -5 11 -45 c6 -25 9 -49 6 -55 -4 -5 -63
-10 -133 -11 l-127 -1 100 -7 c55 -4 145 -8 200 -8 l100 1 -57 11 c-31 6 -60
14 -64 18 -4 4 -1 29 6 54 l13 47 236 -6 c271 -8 980 9 1014 23 12 5 33 18 46
27 24 17 24 17 12 -5 l-12 -22 113 6 c103 5 116 4 146 -16 19 -11 32 -26 30
-32 -2 -6 -26 -19 -54 -28 -27 -10 -92 -36 -145 -58 -88 -38 -108 -42 -230
-52 -74 -6 -213 -11 -309 -13 l-175 -2 -3 27 c-3 23 -10 28 -50 37 -26 5 -79
13 -118 16 -57 6 -73 4 -86 -8 -10 -10 -19 -12 -25 -6 -7 7 -28 5 -64 -4 -47
-11 -54 -17 -54 -38 0 -22 -5 -24 -50 -27 -142 -10 -910 52 -936 75 -11 9 -18
10 -20 4 -5 -14 -156 0 -489 46 -292 40 -353 53 -386 84 -24 22 -33 46 -14 34
11 -7 233 -35 265 -34 11 0 -56 16 -150 34 -93 18 -187 39 -207 45 -36 10 -70
45 -97 98 -10 20 -9 22 11 22 12 0 79 -12 148 -26z m4410 12 c0 -7 -16 -34
-35 -59 -28 -37 -48 -50 -112 -75 -43 -17 -69 -31 -58 -32 36 -1 -28 -47 -82
-58 -111 -24 -909 -122 -987 -122 -18 0 -18 2 5 26 34 36 85 60 146 69 36 5
58 14 75 32 24 26 22 27 -22 5 -22 -11 -32 -10 -75 9 l-50 23 30 7 c17 4 134
22 260 40 127 17 292 41 368 54 l138 22 34 -39 35 -38 0 44 0 45 58 11 c31 7
93 20 137 30 99 23 135 24 135 6z m-4195 -46 c3 -5 2 -10 -4 -10 -5 0 -13 5
-16 10 -3 6 -2 10 4 10 5 0 13 -4 16 -10z m3845 -10 c0 -5 -2 -10 -4 -10 -3 0
-8 5 -11 10 -3 6 -1 10 4 10 6 0 11 -4 11 -10z m-776 -181 c-8 -14 -24 -10
-24 6 0 9 6 12 15 9 8 -4 12 -10 9 -15z m-2582 -141 c35 -42 35 -48 -4 -48
-80 0 -108 11 -123 48 -8 19 -15 37 -15 40 0 2 26 2 57 -1 50 -5 62 -11 85
-39z m1501 29 c-3 -5 3 -6 16 -2 11 3 30 3 41 0 19 -6 20 -15 20 -196 0 -124
-3 -188 -10 -184 -6 4 -10 73 -10 175 0 144 -2 169 -16 174 -9 3 -49 6 -89 6
-53 0 -74 4 -78 14 -3 8 -3 17 1 20 10 11 132 4 125 -7z m1472 -23 c-8 -20
-15 -38 -15 -40 0 -2 -13 -4 -30 -4 -17 0 -30 -5 -30 -12 -1 -8 -6 -6 -14 4
-9 12 -16 14 -23 7 -6 -6 -45 -12 -88 -15 -43 -2 -84 -9 -91 -15 -10 -8 -14
-8 -14 -1 0 6 4 14 10 17 5 3 15 15 21 27 8 15 8 19 0 13 -7 -4 -18 -1 -26 5
-10 8 -15 9 -15 2 0 -6 5 -14 10 -17 7 -4 6 -13 -1 -26 -8 -16 -19 -19 -55
-17 -37 2 -48 8 -62 30 -9 15 -14 29 -12 32 3 2 34 7 70 11 36 3 119 12 185
19 66 7 137 14 158 14 l37 2 -15 -36z m-2772 5 c59 -7 107 -16 107 -20 0 -3
-9 -18 -21 -33 -17 -22 -28 -26 -70 -26 l-50 0 16 31 16 31 -38 -26 c-23 -16
-51 -26 -73 -26 -30 0 -38 5 -57 40 -13 21 -23 42 -23 46 0 3 19 4 43 1 23 -3
90 -12 150 -18z m1157 6 c11 -13 8 -15 -13 -15 -57 0 -57 1 -57 -170 0 -95 -4
-161 -10 -165 -7 -4 -10 56 -10 174 0 134 3 181 13 184 25 11 65 6 77 -8z
m150 -44 l25 -7 0 -198 c0 -109 -3 -200 -6 -202 -16 -10 -138 -14 -174 -7 -37
8 -40 11 -43 46 -4 52 -22 46 -22 -8 0 -40 3 -45 28 -52 36 -10 180 -10 215 0
22 6 27 13 27 38 0 18 4 28 10 24 6 -3 10 -24 10 -45 0 -37 -2 -40 -37 -47
-54 -11 -223 -8 -255 5 -25 10 -28 17 -28 56 0 33 7 52 26 75 26 31 26 34 25
175 l-2 145 28 4 c45 7 146 6 173 -2z m-1310 -83 c10 -6 -23 -7 -90 -3 -58 4
-112 11 -120 16 -10 6 23 7 90 3 58 -3 112 -10 120 -16z m2666 15 c-9 -10
-129 -23 -141 -15 -5 3 1 9 15 13 33 9 135 11 126 2z m-161 -13 c4 -6 -9 -10
-32 -10 -28 0 -34 3 -23 10 20 13 47 13 55 0z m-2515 -52 c24 -3 25 -6 28 -90
2 -56 -1 -88 -8 -88 -5 0 -10 20 -10 45 0 25 -4 45 -10 45 -5 0 -10 -15 -10
-34 0 -61 -6 -66 -76 -66 -54 0 -64 3 -65 18 -1 16 -2 16 -6 -1 -7 -25 -58
-50 -70 -34 -19 24 -23 52 -17 111 5 40 9 54 14 41 6 -16 8 -14 13 12 6 31 7
31 74 35 51 3 71 0 81 -11 10 -13 12 -10 12 13 0 22 3 26 13 18 6 -5 23 -12
37 -14z m2710 -88 c0 -91 -3 -110 -15 -110 -11 0 -15 13 -16 58 -1 31 -4 68
-8 82 -6 21 -8 18 -14 -24 -4 -27 -7 -64 -7 -82 0 -31 -3 -34 -30 -34 -25 0
-33 6 -45 32 -13 31 -13 32 -17 8 -3 -23 -7 -25 -58 -25 l-55 0 -2 80 -2 80
14 -45 13 -45 1 42 c1 47 9 73 22 73 5 0 9 -7 9 -15 0 -8 5 -15 10 -15 6 0 10
6 10 13 0 11 16 13 73 10 55 -4 77 -1 92 11 11 8 21 16 23 16 1 0 2 -49 2
-110z m-980 -80 c143 -9 490 -36 774 -60 65 -5 216 -14 335 -19 199 -9 221
-12 274 -36 72 -31 80 -31 42 -1 l-30 24 65 7 c36 4 82 5 102 3 l37 -3 -28
-40 c-32 -47 -78 -80 -135 -98 -47 -14 -256 -14 -651 -1 l-260 9 -42 30 c-47
33 -51 41 -25 48 12 3 9 5 -8 6 -14 1 -36 8 -50 16 -32 18 -51 19 -44 1 4 -10
-3 -16 -23 -19 -16 -2 -7 -5 24 -6 43 -1 55 -5 72 -27 12 -15 21 -30 21 -34 0
-8 -692 -23 -1040 -24 -236 0 -313 8 -306 32 3 9 8 35 12 57 6 34 5 38 -7 28
-12 -9 -25 -1 -72 44 -31 30 -57 57 -57 59 0 2 62 4 137 4 137 0 167 -9 70
-21 -47 -6 -44 -6 31 -8 63 -1 82 -4 82 -15 0 -8 6 -16 13 -19 9 -3 9 -7 -2
-20 -7 -10 -12 -31 -9 -51 3 -31 1 -35 -25 -40 -16 -3 -45 -6 -65 -6 -19 0
-33 -2 -30 -6 3 -3 77 -10 164 -15 156 -10 355 -1 444 21 31 7 28 8 -28 9 -46
1 -62 4 -59 14 2 6 -2 27 -9 45 -7 17 -9 32 -3 32 5 0 9 8 9 19 0 22 32 30
129 32 l66 2 -84 10 c-54 6 -79 12 -70 18 18 11 65 11 259 -1z m-1020 -25 c14
-8 44 -33 68 -58 l44 -44 -13 -42 c-12 -42 -39 -76 -39 -51 0 11 -86 12 -442
7 -244 -4 -523 -12 -621 -18 -98 -6 -181 -9 -184 -5 -3 3 2 15 13 27 18 20 18
20 -11 13 -17 -4 -54 -15 -83 -25 -54 -19 -107 -16 -173 10 -30 11 -99 68 -99
82 0 5 16 9 37 9 44 0 37 11 -14 19 -20 3 -38 12 -41 20 -4 11 10 12 79 5 46
-5 172 -8 279 -6 l195 1 -30 -24 -30 -25 64 26 c83 33 211 49 227 28 10 -12
12 -13 17 0 6 16 30 19 422 51 274 22 291 22 335 0z m2470 -270 c0 -34 -17
-40 -23 -7 -3 15 -3 30 0 35 8 14 23 -4 23 -28z m-3182 -57 c9 -71 9 -72 11
-23 3 58 16 99 24 75 11 -29 14 -299 4 -293 -6 4 -8 -8 -3 -33 16 -94 17 -149
2 -310 -9 -94 -16 -218 -16 -274 l0 -103 -42 7 c-52 8 -58 12 -59 39 -1 20 -2
20 -8 -3 -4 -14 -15 -26 -24 -28 -15 -3 -17 10 -18 125 l-1 128 -13 -70 c-33
-174 -39 -189 -73 -196 l-32 -6 0 493 0 493 26 20 c32 25 52 27 60 6 6 -14 8
-14 18 -1 6 8 31 17 56 19 25 2 52 4 62 5 13 2 18 -12 26 -70z m2522 65 c21
-4 35 -13 38 -26 5 -20 6 -20 12 -1 5 14 16 19 43 19 l36 0 6 -65 c9 -99 11
-101 20 -22 4 39 11 72 16 72 24 0 28 -61 28 -451 0 -228 -2 -409 -5 -403 -2
5 -8 30 -13 55 -8 41 -9 40 -9 -31 -1 -41 3 -97 7 -123 8 -47 8 -48 -18 -45
-27 3 -28 5 -55 123 l-14 60 1 -85 1 -85 -55 0 -54 0 -6 132 c-3 73 -8 135
-11 138 -3 4 -9 -38 -13 -91 -4 -54 -11 -121 -15 -149 -6 -43 -8 -36 -9 50 -1
55 -8 165 -16 245 -21 208 -19 330 5 418 11 39 20 84 20 99 l-1 28 -14 -25
c-13 -23 -14 -19 -15 61 0 109 9 119 90 102z m729 -722 c10 -7 6 -16 -18 -42
-26 -29 -30 -31 -31 -14 0 55 18 76 49 56z m-3214 -353 c27 -12 15 -13 -111
-16 l-140 -3 -11 -27 -11 -27 -1 28 c-1 21 -6 27 -23 27 -32 0 -10 17 37 29
52 13 222 6 260 -11z m2648 11 c52 -11 78 -29 42 -29 -10 0 -15 -10 -15 -27
l-1 -28 -15 28 -15 27 -136 0 c-93 0 -134 3 -127 10 27 27 176 37 267 19z
m-2958 -1377 c-3 -3 -11 1 -18 9 -10 11 -11 140 -1 659 6 355 13 647 15 650 2
3 5 -292 6 -654 2 -363 1 -662 -2 -664z m221 1273 l12 -40 1 43 1 43 48 -3 47
-3 0 -655 0 -655 -35 -16 c-19 -9 -47 -20 -62 -23 l-28 -6 0 120 c0 67 -4 119
-9 116 -4 -3 -11 -49 -15 -102 -7 -97 -19 -140 -37 -129 -5 4 -9 95 -10 213
l-1 207 -17 -87 c-10 -49 -20 -91 -24 -94 -3 -3 -4 34 -1 82 3 49 1 186 -4
304 -5 118 -5 222 -1 230 7 13 9 13 10 0 4 -41 18 87 18 170 0 116 -13 161
-24 82 -4 -29 -11 -54 -15 -57 -13 -8 -22 222 -10 265 l11 41 67 -3 66 -3 12
-40z m2562 10 l4 -30 13 33 c14 31 15 32 79 32 l64 0 9 -42 c10 -52 5 -268 -7
-268 -4 0 -11 22 -15 50 -13 92 -25 64 -25 -58 0 -130 7 -185 22 -176 6 4 9
-108 6 -310 -1 -174 -6 -316 -9 -316 -3 0 -12 39 -20 88 l-14 87 -3 -195 c-2
-214 -5 -232 -27 -209 -9 9 -18 59 -25 139 -7 69 -14 127 -16 129 -2 2 -4 -60
-4 -138 l0 -143 -32 7 c-18 4 -46 15 -63 24 l-30 17 -3 658 -2 657 47 -3 c45
-3 48 -5 51 -33z m253 -759 c3 -401 1 -520 -8 -523 -10 -4 -13 134 -15 613 -2
339 -1 638 2 663 8 86 17 -228 21 -753z m292 508 c16 -6 15 -10 -9 -43 -43
-57 -124 -127 -124 -107 0 8 43 80 67 112 13 17 23 36 23 43 0 7 6 10 13 7 6
-3 20 -9 30 -12z m-163 -264 c0 -5 -5 -10 -11 -10 -5 0 -7 5 -4 10 3 6 8 10
11 10 2 0 4 -4 4 -10z m-55 -39 c3 -5 1 -12 -5 -16 -16 -10 -12 -35 5 -35 9 0
20 11 25 25 12 32 45 33 53 3 4 -15 -1 -30 -15 -45 -25 -27 -38 -29 -38 -8 0
14 -3 13 -25 -1 -20 -13 -26 -14 -29 -3 -4 12 -2 58 2 82 3 10 20 9 27 -2z
m-920 -670 c-12 -11 -85 -26 -85 -17 0 10 41 25 70 25 15 1 20 -3 15 -8z"/>
<path d="M2945 4541 l-100 -6 70 -7 c80 -9 225 -8 335 1 l75 6 -100 7 c-55 5
-118 7 -140 6 -22 -1 -85 -4 -140 -7z"/>
<path d="M3073 4428 c-107 -4 -198 -9 -201 -12 -7 -8 353 -7 401 0 39 7 53 24
16 21 -12 -1 -109 -5 -216 -9z"/>
<path d="M3785 4380 c-33 -4 -109 -13 -170 -20 -158 -16 -201 -28 -85 -23 129
5 265 21 325 38 58 15 29 18 -70 5z"/>
<path d="M4621 4445 c-130 -29 -102 -32 49 -5 76 13 92 18 60 18 -25 0 -74 -6
-109 -13z"/>
<path d="M3012 4170 c0 -19 2 -27 5 -17 2 9 2 25 0 35 -3 9 -5 1 -5 -18z"/>
<path d="M3807 3783 c18 -2 50 -2 70 0 21 2 7 4 -32 4 -38 0 -55 -2 -38 -4z"/>
<path d="M4240 3780 c78 -11 291 -10 230 1 -25 4 -99 7 -165 7 -98 -1 -110 -2
-65 -8z"/>
<path d="M2005 3834 l-70 -13 89 6 c48 3 109 9 135 13 45 8 45 8 -19 8 -36 0
-96 -6 -135 -14z"/>
<path d="M2240 3810 c8 -5 94 -9 195 -9 104 1 167 5 150 9 -46 12 -363 12
-345 0z"/>
<path d="M1735 3526 c-4 -50 -3 -101 3 -123 8 -32 10 -18 11 85 1 67 -1 122
-3 122 -2 0 -7 -38 -11 -84z"/>
<path d="M1787 3337 c3 -24 0 -84 -6 -132 -14 -104 -5 -271 12 -220 13 39 12
374 -1 387 -6 6 -8 -6 -5 -35z m10 -214 c-3 -10 -5 -2 -5 17 0 19 2 27 5 18 2
-10 2 -26 0 -35z"/>
<path d="M1831 3230 c1 -103 3 -127 10 -100 15 53 15 192 2 215 -10 16 -12 -6
-12 -115z"/>
<path d="M1681 3305 c-3 -51 -18 -128 -20 -97 0 13 -5 20 -11 17 -12 -8 -14
-381 -1 -389 4 -3 11 44 14 104 7 141 26 181 28 60 1 -73 3 -79 10 -45 12 60
9 231 -5 315 -11 62 -14 68 -15 35z"/>
<path d="M1834 2825 c0 -49 1 -71 3 -48 2 23 2 64 0 90 -2 26 -3 8 -3 -42z"/>
<path d="M4333 3235 c0 -38 2 -53 4 -32 2 20 2 52 0 70 -2 17 -4 1 -4 -38z"/>
<path d="M4394 3070 c8 -286 19 -356 30 -195 7 105 -15 410 -31 425 -3 3 -3
-101 1 -230z"/>
<path d="M4533 3150 c0 -47 2 -66 4 -42 2 23 2 61 0 85 -2 23 -4 4 -4 -43z"/>
<path d="M1888 2391 c-5 -18 -8 -61 -7 -95 1 -60 1 -61 10 -21 6 22 8 65 7 95
-3 51 -4 52 -10 21z"/>
<path d="M1833 2270 c0 -25 2 -35 4 -22 2 12 2 32 0 45 -2 12 -4 2 -4 -23z"/>
<path d="M1736 2098 c-4 -53 -6 -102 -3 -110 7 -21 19 92 15 152 -3 48 -4 44
-12 -42z"/>
<path d="M1767 1985 c-4 -22 -6 -69 -6 -105 2 -64 2 -64 10 25 10 97 7 145 -4
80z"/>
<path d="M1881 1829 c0 -63 4 -132 9 -154 6 -26 7 14 3 110 -3 83 -7 152 -9
154 -2 2 -4 -47 -3 -110z"/>
<path d="M1847 1625 c-9 -51 -8 -168 2 -220 6 -35 8 -27 14 55 4 52 3 120 -1
150 l-8 55 -7 -40z"/>
<path d="M4311 2337 c-1 -57 3 -86 9 -82 12 7 12 61 1 125 -7 39 -9 34 -10
-43z"/>
<path d="M4372 2260 c0 -19 2 -27 5 -17 2 9 2 25 0 35 -3 9 -5 1 -5 -18z"/>
<path d="M4458 2136 c-1 -31 2 -81 9 -113 11 -54 11 -51 6 52 -3 61 -7 111 -8
113 -2 2 -5 -22 -7 -52z"/>
<path d="M4432 1980 c0 -25 4 -72 8 -105 l7 -60 1 65 c0 36 -3 83 -7 105 l-9
40 0 -45z"/>
<path d="M4313 1805 c0 -123 3 -161 8 -120 9 81 10 211 0 260 -5 25 -8 -28 -8
-140z"/>
<path d="M4347 1626 c-11 -79 -9 -262 4 -249 14 14 22 177 12 243 l-9 55 -7
-49z"/>
<path d="M2780 5140 c-9 -6 -10 -10 -3 -10 6 0 15 5 18 10 8 12 4 12 -15 0z"/>
<path d="M3950 5016 c0 -2 8 -10 18 -17 15 -13 16 -12 3 4 -13 16 -21 21 -21
13z"/>
</g>
</svg>
